<?xml version="1.0" encoding="UTF-8" standalone="no"?>
<svg
   xmlns:dc="http://purl.org/dc/elements/1.1/"
   xmlns:cc="http://creativecommons.org/ns#"
   xmlns:rdf="http://www.w3.org/1999/02/22-rdf-syntax-ns#"
   xmlns:svg="http://www.w3.org/2000/svg"
   xmlns="http://www.w3.org/2000/svg"
   xmlns:sodipodi="http://sodipodi.sourceforge.net/DTD/sodipodi-0.dtd"
   xmlns:inkscape="http://www.inkscape.org/namespaces/inkscape"
   width="5439.72"
   height="9425.91"
   version="1.1"
   id="svg738"
   sodipodi:docname="_ImageCollection.svg"
   inkscape:version="1.0.1 (c497b03c, 2020-09-10)">
  <metadata
     id="metadata744">
    <rdf:RDF>
      <cc:Work
         rdf:about="">
        <dc:format>image/svg+xml</dc:format>
        <dc:type
           rdf:resource="http://purl.org/dc/dcmitype/StillImage" />
      </cc:Work>
    </rdf:RDF>
  </metadata>
  <defs
     id="defs742" />
  <sodipodi:namedview
     pagecolor="#ffffff"
     bordercolor="#666666"
     borderopacity="1"
     objecttolerance="10"
     gridtolerance="10"
     guidetolerance="10"
     inkscape:pageopacity="0"
     inkscape:pageshadow="2"
     inkscape:window-width="1229"
     inkscape:window-height="735"
     id="namedview740"
     showgrid="false"
     inkscape:zoom="0.11851924"
     inkscape:cx="974.92662"
     inkscape:cy="723.96263"
     inkscape:window-x="409"
     inkscape:window-y="133"
     inkscape:window-maximized="0"
     inkscape:current-layer="svg738"
     inkscape:document-rotation="0" />
  <path
     d="m 3585.73,3740.6 h 120 v 122 h -120 z"
     fill="none"
     id="path10" />
  <path
     d="m 3585.73,3801.6 h 54 m 0,-36.6 v 73.2 m 12,-36.6 h 54 m -54,-36.6 v 73.2"
     stroke="#000000"
     stroke-width="3"
     fill="#ffffff"
     id="path12" />
  <g
     fill="none"
     id="g18">
    <path
       d="m 3791.8,3931.6 v 140 h -80 v -140 z"
       id="path14" />
    <path
       d="m 3743.8,3931.6 v 14 c 15.04,0 24,6.27 24,14 0,7.73 -8.96,14 -20,14 11.04,0 20,6.27 20,14 0,7.73 -8.96,14 -20,14 11.04,0 20,6.27 20,14 0,7.73 -8.96,14 -20,14 11.04,0 20,6.27 20,14 0,7.73 -8.96,14 -20,14 -1.4,0 -2.6,-0.08 -3.98,-0.28 l -0.02,14.28"
       stroke="#000000"
       stroke-width="3"
       id="path16" />
  </g>
  <path
     d="m 3623.08,3714.95 c 0,-2.76 2.24,-5 5,-5 h 57.2 c 2.75,0 5,2.24 5,5 v 40.9 c 0,2.77 -2.25,5 -5,5 h -57.2 c -2.76,0 -5,-2.23 -5,-5 z"
     fill="#ffffff"
     fill-opacity="0"
     id="path20" />
  <path
     d="m 3664.36,3711.1 -2.2,11.97 -1.1,-0.18 c -0.7,-6.42 -3.65,-9.78 -8.92,-9.78 -4.43,0 -8.63,2.28 -11.92,5.82 -4.3,4.6 -6.47,11.44 -6.47,18.03 0,8.4 3.83,12.28 10.48,12.28 4.92,0 8.5,-1.74 13.72,-7.13 l 1.08,0.9 c -5.4,6.35 -10.18,8.93 -16.35,8.93 -9.17,0 -15.64,-5.75 -15.64,-15.64 0,-8.44 4.6,-16.3 11.2,-20.96 3.84,-2.75 8.4,-4.37 13.12,-4.37 1.98,0 4.5,0.12 7,1.02 1.2,0.4 1.93,0.4 2.47,0.4 1.2,0 1.8,-0.35 2.28,-1.3 h 1.26 m 15.35,48.81 h -11.7 v -0.64 c 3.15,-0.17 4.04,-1.06 4.04,-3.4 v -19 c 0,-1.45 -0.38,-2.1 -1.27,-2.1 -0.44,0 -1.16,0.22 -1.92,0.52 l -1.14,0.42 v -0.6 l 7.58,-3.85 0.38,0.13 v 25.3 c 0,1.8 0.85,2.58 4.02,2.58 v 0.63"
     id="path22" />
  <path
     d="m 3762.74,3819.6 c 0,-2.76 2.24,-5 5,-5 h 43.06 c 2.76,0 5,2.24 5,5 v 30.96 c 0,2.76 -2.24,5 -5,5 h -43.06 c -2.76,0 -5,-2.24 -5,-5 z"
     fill="#ffffff"
     fill-opacity="0"
     id="path24" />
  <path
     d="m 3815.77,3815.6 v 0.97 c -3.4,0.53 -4,1.37 -4.83,4.4 l -7.34,26.42 c -0.4,1.48 -0.83,2.73 -0.83,3.7 0,1.54 1.07,2.37 4.83,2.5 l -0.06,0.94 h -16.16 v -0.95 c 3.88,-0.43 5.07,-1.44 6.08,-5.14 l 7.5,-27.36 -22.4,33.44 h -1 l -3.7,-32.55 -7.05,25.5 c -0.28,1.08 -0.52,2.57 -0.52,3.23 0,1.67 1.13,2.62 4.17,2.86 v 0.94 h -11.74 v -0.95 c 3.1,-0.37 4.06,-1.32 5.97,-8 l 6.8,-23.9 c 0.47,-1.6 0.7,-2.63 0.7,-3.1 0,-1.14 -1.42,-1.85 -4.4,-2.03 v -0.96 h 10.8 l 3.33,29.35 19.97,-29.34 h 9.9"
     id="path26" />
  <path
     d="m 3743.8,3930.1 v -128.5 h -36.57"
     stroke="#000000"
     stroke-width="3"
     fill="none"
     id="path28" />
  <path
     d="m 3742.3,3931.6 v -1.54 h 3 v 1.54 z m -35.03,-128.5 h -1.54 v -3 h 1.54 z"
     id="path30" />
  <path
     d="m 3677.1,3981.17 c 0,-2.76 2.23,-5 5,-5 h 53.2 c 2.77,0 5,2.24 5,5 v 41.97 c 0,2.77 -2.23,5 -5,5 h -53.2 c -2.77,0 -5,-2.23 -5,-5 z"
     fill="#ffffff"
     fill-opacity="0"
     id="path32" />
  <path
     d="m 3712.27,4006.6 -3.6,11.2 h -31.6 v -1 c 3.47,-0.38 3.96,-0.94 5.08,-4.85 l 7.58,-27.2 c 0.5,-1.68 0.68,-2.92 0.68,-3.85 0,-1.8 -0.92,-2.43 -4.77,-2.67 v -1 h 16.95 v 1 c -3.72,0.24 -5.28,1.24 -6.27,4.78 l -7.44,26.65 c -0.37,1.43 -0.62,2.5 -0.62,3.36 0,1.93 1.43,2.55 6.52,2.55 6.2,0 8.13,-0.3 11.18,-2.36 1.98,-1.3 3.35,-3.36 5.1,-6.96 m 18.36,20.89 h -12.12 v -0.66 c 3.25,-0.17 4.17,-1.1 4.17,-3.5 v -19.73 c 0,-1.5 -0.4,-2.15 -1.32,-2.15 -0.44,0 -1.18,0.22 -1.97,0.53 l -1.2,0.44 v -0.62 l 7.87,-4 0.4,0.14 v 26.2 c 0,1.9 0.88,2.68 4.17,2.68 v 0.66"
     id="path34" />
  <path
     d="m 3865.73,3741.03 h 120 v 122 h -120 z"
     fill="none"
     id="path36" />
  <path
     d="m 3865.73,3802.03 h 54 m 0,-36.6 v 73.2 m 12,-36.6 h 54 m -54,-36.6 v 73.2"
     stroke="#000000"
     stroke-width="3"
     fill="#ffffff"
     id="path38" />
  <g
     fill="none"
     id="g44">
    <path
       d="m 3880.36,3932.16 v 140 h -80 v -140 z"
       id="path40" />
    <path
       d="m 3832.36,3932.16 v 14 c 15.05,0 24,6.27 24,14 0,7.73 -8.95,14 -20,14 11.05,0 20,6.27 20,14 0,7.73 -8.95,14 -20,14 11.05,0 20,6.27 20,14 0,7.73 -8.95,14 -20,14 11.05,0 20,6.27 20,14 0,7.73 -8.95,14 -20,14 -1.4,0 -2.6,-0.08 -3.97,-0.28 l -0.04,14.28"
       stroke="#000000"
       stroke-width="3"
       id="path42" />
  </g>
  <path
     d="m 3901.06,3716.6 c 0,-2.76 2.24,-5 5,-5 h 55.35 c 2.77,0 5,2.24 5,5 v 39.52 c 0,2.76 -2.23,5 -5,5 h -55.34 c -2.76,0 -5,-2.24 -5,-5 z"
     fill="#ffffff"
     fill-opacity="0"
     id="path46" />
  <path
     d="m 3941.2,3712.7 -2.15,11.66 -1.05,-0.17 c -0.7,-6.25 -3.55,-9.5 -8.68,-9.5 -4.3,0 -8.4,2.2 -11.6,5.64 -4.2,4.5 -6.3,11.13 -6.3,17.54 0,8.16 3.74,11.95 10.2,11.95 4.8,0 8.28,-1.7 13.35,-6.94 l 1.05,0.87 c -5.24,6.17 -9.9,8.68 -15.9,8.68 -8.92,0 -15.2,-5.6 -15.2,-15.2 0,-8.23 4.47,-15.86 10.88,-20.4 3.73,-2.7 8.16,-4.26 12.76,-4.26 1.93,0 4.37,0.1 6.82,0.98 1.17,0.4 1.87,0.4 2.4,0.4 1.16,0 1.74,-0.34 2.2,-1.27 h 1.23 m 18.24,41.85 -2.23,5.65 h -16.1 v -0.5 l 7.32,-7.8 c 3.88,-4.07 5.36,-7.2 5.36,-10.7 0,-3.75 -2.22,-5.8 -5.73,-5.8 -2.96,0 -4.4,1.3 -6.05,5.35 l -0.87,-0.2 c 0.87,-4.83 3.5,-8.2 8.57,-8.2 4.66,0 7.62,3.16 7.62,7.24 0,3.26 -1.6,6.35 -5.27,10.22 l -6.8,7.24 h 9.64 c 1.74,0 2.6,-0.45 3.97,-2.76"
     id="path48" />
  <path
     d="m 3871.4,3976.34 c 0,-2.76 2.25,-5 5,-5 h 53.86 c 2.77,0 5,2.24 5,5 v 42.5 c 0,2.75 -2.23,5 -5,5 h -53.85 c -2.75,0 -5,-2.25 -5,-5 z"
     fill="#ffffff"
     fill-opacity="0"
     id="path50" />
  <path
     d="m 3906.95,4002.08 -3.64,11.3 h -31.92 v -1 c 3.5,-0.4 4,-0.95 5.14,-4.9 l 7.66,-27.48 c 0.5,-1.7 0.7,-2.95 0.7,-3.9 0,-1.8 -0.96,-2.44 -4.84,-2.7 v -1 h 17.12 v 1 c -3.76,0.26 -5.33,1.27 -6.34,4.84 l -7.52,26.9 c -0.38,1.46 -0.63,2.52 -0.63,3.4 0,1.95 1.44,2.57 6.6,2.57 6.26,0 8.2,-0.3 11.28,-2.37 2,-1.32 3.4,-3.4 5.14,-7.03 m 22.12,15.03 -2.4,6.08 h -17.34 v -0.53 l 7.9,-8.4 c 4.16,-4.4 5.76,-7.76 5.76,-11.53 0,-4.03 -2.4,-6.25 -6.17,-6.25 -3.2,0 -4.74,1.42 -6.52,5.76 l -0.93,-0.22 c 0.93,-5.2 3.77,-8.83 9.23,-8.83 5,0 8.2,3.42 8.2,7.8 0,3.52 -1.73,6.84 -5.67,11 l -7.32,7.82 h 10.38 c 1.86,0 2.8,-0.5 4.25,-2.97"
     id="path52" />
  <path
     d="m 3864.23,3802.03 h -31.87 v 128.63"
     stroke="#000000"
     stroke-width="3"
     fill="none"
     id="path54" />
  <path
     d="m 3865.73,3803.53 h -1.54 v -3 h 1.53 z m -34.87,128.63 v -1.54 h 3 v 1.54 z"
     id="path56" />
  <path
     d="m 3754.9,3894.43 0.77,-1.68 2.55,-4.14 2.84,-3.55 3.08,-3 3.3,-2.54 3.57,-2.06 3.85,-1.66 4.2,-1.22 4.7,-0.75 4.24,-0.2 5.1,0.3 4.42,0.82 3.9,1.24 3.55,1.62 3.25,2 3.02,2.4 2.8,2.9 2.63,3.43 2.37,4.08 0.84,1.95"
     stroke="#000000"
     stroke-width="3"
     fill="none"
     id="path58" />
  <path
     d="m 3751.47,3909.64 -1.38,-14.93 9.03,2.05 z m 71.55,-0.02 -7.4,-13.04 9.07,-1.86 z"
     stroke="#000000"
     stroke-width="3"
     id="path60" />
  <path
     d="m 3726.13,3943.75 c 0,4.06 -3.3,7.36 -7.36,7.36 -4.07,0 -7.36,-3.3 -7.36,-7.35 0,-4.07 3.3,-7.36 7.37,-7.36 4.06,0 7.36,3.28 7.36,7.35 z m 160,1 c 0,4.06 -3.3,7.36 -7.36,7.36 -4.07,0 -7.36,-3.3 -7.36,-7.35 0,-4.07 3.3,-7.36 7.37,-7.36 4.06,0 7.36,3.28 7.36,7.35 z"
     stroke="#000000"
     stroke-opacity="0"
     stroke-width="3"
     id="path62" />
  <path
     d="m 3838.13,4130.2 h 160 v 80 h -160 z"
     fill="none"
     id="path64" />
  <path
     d="m 3838.13,4170.2 h 36 l 8,-12 12,24 12,-24 12,24 12,-24 12,24 12,-24 12,24 8,-12 h 24"
     stroke="#000000"
     stroke-width="3"
     fill="none"
     id="path66" />
  <path
     d="m 3886.13,4200.2 c 0,-2.75 2.24,-5 5,-5 h 52.8 c 2.77,0 5,2.25 5,5 v 38.77 c 0,2.76 -2.23,5 -5,5 h -52.8 c -2.76,0 -5,-2.24 -5,-5 z"
     fill="#ffffff"
     fill-opacity="0"
     id="path68" />
  <path
     d="m 3894.55,4196.2 h 14.68 c 7.7,0 11.9,3.27 11.9,8.22 0,2.8 -1.47,5.66 -3.86,7.46 -1.8,1.4 -3.73,2.1 -7.63,2.97 l 5.2,13.7 c 1.27,3.44 2.43,4.78 5.06,4.78 v 0.93 h -8.57 l -7.17,-18.88 -3.84,-0.3 -3.2,11.84 c -0.65,2.27 -0.77,3.08 -0.77,3.67 0,1.73 0.6,2.38 3.9,2.73 v 0.93 h -14.15 v -0.93 c 3.2,-0.4 4.02,-1.52 4.95,-4.96 l 6.94,-25.1 c 0.4,-1.6 0.68,-2.7 0.68,-3.68 0,-0.65 -0.4,-1.35 -0.8,-1.65 -0.65,-0.4 -0.9,-0.46 -3.33,-0.8 v -0.94 m 10.14,3.5 -3.68,13.23 c 1.45,0.23 1.92,0.3 2.97,0.3 6.92,0 11,-3.33 11,-8.75 0,-4.02 -2.45,-6.53 -7,-6.53 -1.8,0 -3.02,0.65 -3.3,1.75 m 37.33,37.71 -2.24,5.63 h -16.1 v -0.5 l 7.32,-7.78 c 3.88,-4.08 5.36,-7.2 5.36,-10.7 0,-3.76 -2.22,-5.82 -5.73,-5.82 -2.95,0 -4.4,1.32 -6.04,5.36 l -0.87,-0.22 c 0.86,-4.82 3.5,-8.2 8.56,-8.2 4.66,0 7.62,3.17 7.62,7.25 0,3.26 -1.6,6.35 -5.27,10.22 l -6.8,7.25 h 9.65 c 1.73,0 2.6,-0.45 3.96,-2.76"
     id="path70" />
  <path
     d="m 3565.73,4131.67 h 160 v 80 h -160 z"
     fill="none"
     id="path72" />
  <path
     d="m 3565.73,4171.67 h 36 l 8,-12 12,24 12,-24 12,24 12,-24 12,24 12,-24 12,24 8,-12 h 24"
     stroke="#000000"
     stroke-width="3"
     fill="none"
     id="path74" />
  <path
     d="m 3612.04,4200.2 c 0,-2.75 2.24,-5 5,-5 h 54.58 c 2.76,0 5,2.25 5,5 v 40.15 c 0,2.76 -2.24,5 -5,5 h -54.58 c -2.76,0 -5,-2.24 -5,-5 z"
     fill="#ffffff"
     fill-opacity="0"
     id="path76" />
  <path
     d="m 3620.7,4196.23 h 15.1 c 7.9,0 12.22,3.36 12.22,8.45 0,2.88 -1.5,5.8 -3.96,7.67 -1.85,1.44 -3.83,2.16 -7.84,3.06 l 5.33,14.08 c 1.32,3.54 2.5,4.92 5.2,4.92 v 0.96 h -8.8 l -7.37,-19.4 -3.95,-0.3 -3.3,12.15 c -0.65,2.34 -0.77,3.18 -0.77,3.78 0,1.8 0.6,2.46 4,2.82 v 0.96 h -14.55 v -0.96 c 3.3,-0.42 4.15,-1.56 5.1,-5.1 l 7.13,-25.82 c 0.42,-1.6 0.72,-2.75 0.72,-3.77 0,-0.65 -0.42,-1.37 -0.84,-1.67 -0.65,-0.42 -0.9,-0.48 -3.4,-0.84 v -0.97 m 10.42,3.6 -3.77,13.6 c 1.5,0.24 1.98,0.3 3.05,0.3 7.13,0 11.33,-3.42 11.33,-9 0,-4.12 -2.52,-6.7 -7.2,-6.7 -1.85,0 -3.1,0.66 -3.4,1.8 m 34.93,44.53 h -11.7 v -0.64 c 3.15,-0.17 4.04,-1.06 4.04,-3.38 v -19.03 c 0,-1.44 -0.4,-2.07 -1.28,-2.07 -0.42,0 -1.14,0.2 -1.9,0.5 l -1.15,0.43 v -0.6 l 7.58,-3.86 0.38,0.13 v 25.3 c 0,1.8 0.85,2.57 4.02,2.57 v 0.64"
     id="path78" />
  <path
     d="m 3727.23,4171.67 h 16.57 v -98.57"
     stroke="#000000"
     stroke-width="3"
     fill="none"
     id="path80" />
  <path
     d="m 3727.27,4173.17 h -1.54 v -3 h 1.54 z m 15.03,-101.57 h 3 v 1.54 h -3 v -4.54 z"
     id="path82" />
  <path
     d="m 3832.36,4073.66 v 96.55 h 4.27"
     stroke="#000000"
     stroke-width="3"
     fill="none"
     id="path84" />
  <path
     d="m 3830.86,4072.16 h 3 v 1.54 h -3 v -4.54 z m 7.27,99.54 h -1.54 v -3 h 1.53 z"
     id="path86" />
  <path
     d="m 3510.47,3742.04 c 0,-2.76 2.24,-5 5,-5 H 3556 c 2.76,0 5,2.24 5,5 v 50.06 c 0,2.76 -2.24,5 -5,5 h -40.53 c -2.76,0 -5,-2.24 -5,-5 z"
     fill="#ffffff"
     fill-opacity="0"
     id="path88" />
  <path
     d="m 3532.63,3782.02 h -20.97 v -1.5 c 4.5,-0.4 5.58,-1.13 5.58,-4.85 v -28.15 c 0,-3.36 -1.26,-4.2 -5.58,-4.5 v -1.5 h 20.97 v 1.5 c -4.43,0.18 -5.7,1.14 -5.7,4.5 v 28.15 c 0,3.9 1.15,4.56 5.7,4.86 v 1.5 m 17.82,9.02 h -11.7 v -0.64 c 3.15,-0.16 4.03,-1.05 4.03,-3.38 V 3768 c 0,-1.44 -0.38,-2.07 -1.27,-2.07 -0.4,0 -1.13,0.2 -1.9,0.5 l -1.14,0.43 v -0.6 l 7.6,-3.85 0.37,0.14 v 25.3 c 0,1.8 0.84,2.57 4.02,2.57 v 0.65"
     id="path90" />
  <path
     d="m 3503.83,3801.6 h 31.04 m -30.97,0 h -2.57"
     stroke="#000000"
     stroke-width="5"
     fill="none"
     id="path92" />
  <path
     d="m 3551.64,3801.6 -14.27,4.63 v -9.27 z"
     stroke="#000000"
     stroke-width="5"
     id="path94" />
  <path
     d="m 3987.23,3802.03 h 120.24"
     stroke="#000000"
     stroke-width="3"
     fill="none"
     id="path96" />
  <path
     d="m 3987.27,3803.53 h -1.54 v -3 h 1.54 z m 121.7,0 h -1.54 v -3 h 1.54 z"
     id="path98" />
  <path
     d="m 4025.44,3801.6 h 31.04 m -30.98,0 h -2.56"
     stroke="#000000"
     stroke-width="5"
     fill="none"
     id="path100" />
  <path
     d="m 4073.25,3801.6 -14.27,4.63 v -9.27 z"
     stroke="#000000"
     stroke-width="5"
     id="path102" />
  <path
     d="m 3999.63,4170.2 h 107.84"
     stroke="#000000"
     stroke-width="3"
     fill="none"
     id="path104" />
  <path
     d="m 3999.67,4171.7 h -1.54 v -3 h 1.54 z m 109.3,0 h -1.54 v -3 h 1.54 z"
     id="path106" />
  <path
     d="m 3515.25,3961.95 c 0,-2.76 2.24,-5 5,-5 h 60.48 c 2.76,0 5,2.24 5,5 V 4012 c 0,2.77 -2.24,5 -5,5 h -60.48 c -2.76,0 -5,-2.23 -5,-5 z"
     fill="#ffffff"
     fill-opacity="0"
     id="path108" />
  <path
     d="m 3557.25,3961.43 v 1.5 c -3.1,0.42 -3.95,1.2 -5.4,4.9 l -13.65,35.18 h -1.62 l -15.33,-35.88 c -1.44,-3.35 -2.04,-3.77 -5.04,-4.2 v -1.5 h 20.14 v 1.5 l -1.97,0.13 c -2.28,0.12 -3.18,0.78 -3.18,2.16 0,0.9 0.17,1.44 1.37,4.32 l 8.27,20 7.6,-19.7 c 1.02,-2.64 1.2,-3.3 1.2,-4.25 0,-1.92 -0.9,-2.34 -5.15,-2.64 v -1.5 h 12.75 m 17.96,49.5 h -11.7 v -0.63 c 3.13,-0.17 4.02,-1.06 4.02,-3.4 v -19 c 0,-1.45 -0.38,-2.08 -1.27,-2.08 -0.42,0 -1.14,0.2 -1.9,0.5 l -1.15,0.43 v -0.6 l 7.58,-3.85 0.4,0.13 v 25.28 c 0,1.83 0.83,2.6 4,2.6 v 0.62"
     id="path110" />
  <path
     d="m 3525.82,3836.1 c 0,-2.76 2.24,-5 5,-5 h 37.84 c 2.76,0 5,2.24 5,5 v 33.42 c 0,2.76 -2.24,5 -5,5 h -37.84 c -2.76,0 -5,-2.24 -5,-5 z"
     fill="#ffffff"
     fill-opacity="0"
     id="path112" />
  <path
     d="M 3570.2,3855.1 H 3552 v 18.23 h -4.62 v -18.22 h -18.2 v -4.6 h 18.2 v -18.2 h 4.6 v 18.2 h 18.23 v 4.6"
     id="path114" />
  <path
     d="m 3530.47,4125.55 c 0,-2.76 2.24,-5 5,-5 h 37.84 c 2.77,0 5,2.24 5,5 v 12.27 c 0,2.76 -2.23,5 -5,5 h -37.83 c -2.76,0 -5,-2.24 -5,-5 z"
     fill="#ffffff"
     fill-opacity="0"
     id="path116" />
  <path
     d="m 3573.8,4126.34 h -38.87 v -4.6 h 38.88 v 4.6"
     id="path118" />
  <path
     d="m 4025.58,3839.6 c 0,-2.76 2.24,-5 5,-5 h 37.85 c 2.76,0 5,2.24 5,5 v 33.42 c 0,2.76 -2.24,5 -5,5 h -37.85 c -2.76,0 -5,-2.24 -5,-5 z"
     fill="#ffffff"
     fill-opacity="0"
     id="path120" />
  <path
     d="m 4069.97,3858.6 h -18.2 v 18.23 h -4.62 v -18.22 h -18.2 v -4.6 h 18.2 v -18.2 h 4.6 v 18.2 h 18.22 v 4.6"
     id="path122" />
  <path
     d="m 4025.58,4135.2 c 0,-2.75 2.24,-5 5,-5 h 37.85 c 2.76,0 5,2.25 5,5 v 12.28 c 0,2.76 -2.24,5 -5,5 h -37.85 c -2.76,0 -5,-2.24 -5,-5 z"
     fill="#ffffff"
     fill-opacity="0"
     id="path124" />
  <path
     d="m 4068.93,4136 h -38.88 v -4.6 h 38.88 v 4.6"
     id="path126" />
  <path
     d="m 4002.95,3956.1 c 0,-2.75 2.24,-5 5,-5 h 60.48 c 2.76,0 5,2.25 5,5 v 50.06 c 0,2.76 -2.24,5 -5,5 h -60.48 c -2.76,0 -5,-2.24 -5,-5 z"
     fill="#ffffff"
     fill-opacity="0"
     id="path128" />
  <path
     d="m 4044.95,3955.6 v 1.5 c -3.12,0.4 -3.96,1.18 -5.4,4.9 l -13.65,35.17 h -1.62 l -15.34,-35.9 c -1.44,-3.35 -2.03,-3.76 -5.03,-4.18 v -1.5 h 20.14 v 1.5 l -1.98,0.1 c -2.27,0.13 -3.17,0.78 -3.17,2.16 0,0.9 0.17,1.44 1.37,4.32 l 8.26,20 7.6,-19.7 c 1.03,-2.64 1.2,-3.3 1.2,-4.26 0,-1.92 -0.9,-2.33 -5.14,-2.63 v -1.5 h 12.75 m 21.33,43.72 -2.28,5.8 h -16.57 v -0.5 l 7.53,-8 c 4,-4.2 5.5,-7.42 5.5,-11.02 0,-3.85 -2.28,-5.97 -5.88,-5.97 -3.05,0 -4.53,1.37 -6.22,5.52 l -0.9,-0.2 c 0.9,-4.97 3.6,-8.44 8.82,-8.44 4.78,0 7.83,3.26 7.83,7.45 0,3.35 -1.64,6.52 -5.4,10.5 l -7,7.46 h 9.9 c 1.8,0 2.68,-0.48 4.08,-2.85"
     id="path130" />
  <path
     d="m 4012.93,3730.66 c 0,-2.76 2.23,-5 5,-5 h 40.52 c 2.77,0 5,2.24 5,5 v 50.06 c 0,2.76 -2.23,5 -5,5 h -40.52 c -2.77,0 -5,-2.24 -5,-5 z"
     fill="#ffffff"
     fill-opacity="0"
     id="path132" />
  <path
     d="m 4035.1,3770.65 h -20.98 v -1.5 c 4.5,-0.42 5.58,-1.14 5.58,-4.86 v -28.16 c 0,-3.36 -1.26,-4.2 -5.58,-4.5 v -1.5 h 20.97 v 1.5 c -4.44,0.18 -5.7,1.14 -5.7,4.5 v 28.15 c 0,3.9 1.14,4.55 5.7,4.85 v 1.5 m 21.21,3.23 -2.3,5.8 h -16.55 v -0.5 l 7.54,-8 c 3.97,-4.2 5.5,-7.42 5.5,-11.02 0,-3.85 -2.3,-5.97 -5.9,-5.97 -3.04,0 -4.52,1.35 -6.22,5.5 l -0.9,-0.2 c 0.9,-4.96 3.6,-8.44 8.82,-8.44 4.8,0 7.84,3.27 7.84,7.46 0,3.34 -1.65,6.5 -5.42,10.5 l -7,7.45 h 9.92 c 1.78,0 2.67,-0.47 4.07,-2.84"
     id="path134" />
  <path
     d="m 3421.03,3946.2 h 16 v 16 h -16 z"
     stroke="#000000"
     stroke-opacity="0"
     stroke-width="3"
     fill-opacity="0"
     id="path136" />
  <path
     d="m 3438.53,3954.2 h 25.94 c 3.3,0 6,2.7 6,6 v 205.47 c 0,3.32 2.68,6 6,6 h 87.76"
     stroke="#000000"
     stroke-width="3"
     fill="none"
     id="path138" />
  <path
     d="m 3438.56,3955.7 h -1.53 v -3 h 1.53 z m 127.17,217.47 h -1.54 v -3 h 1.53 z"
     id="path140" />
  <path
     d="m 3439.95,3801.2 h 144.27 m -144.22,0 h -1.55"
     stroke="#000000"
     stroke-width="3"
     fill="none"
     id="path142" />
  <path
     d="m 3588.73,3800.1 h -3 v 2.6 h -1.54 v -3 h 4.53 z"
     id="path144" />
  <path
     d="m 4110.47,3794.03 h 16 v 16 h -16 z m 0,368.17 h 16 v 16 h -16 z"
     stroke="#000000"
     stroke-width="3"
     id="path146" />
  <path
     d="m 2680,3432.2 c 0,-3.3 2.7,-6 6,-6 h 2298.47 c 3.3,0 6,2.7 6,6 v 848 c 0,3.3 -2.7,6 -6,6 H 2686 c -3.3,0 -6,-2.7 -6,-6 z"
     stroke="#000000"
     stroke-width="3"
     fill-opacity="0"
     id="path148" />
  <path
     d="m 260,1031.1 c 0,-2.76 2.24,-5 5,-5 h 49.07 c 2.76,0 5,2.24 5,5 v 55.03 c 0,2.76 -2.24,5 -5,5 H 265 c -2.76,0 -5,-2.24 -5,-5 z"
     fill="#ffffff"
     fill-opacity="0"
     id="path150"
     inkscape:export-filename="/Users/aaron/path151.png"
     inkscape:export-xdpi="96.976402"
     inkscape:export-ydpi="96.976402" />
  <path
     d="m 303.85,1031.74 -0.23,0.92 c -3.75,0.23 -6.12,2.48 -7.62,4.45 l -25.44,33.24 h -1.4 v -32.95 c 0,-3.35 -2.18,-4.74 -5.7,-4.74 l 0.23,-0.92 h 16.95 l -0.23,0.92 h -1.1 c -3.74,0 -4.03,2.14 -4.03,4.04 v 22.56 l 0.22,0.06 16.15,-21.12 c 1.1,-1.38 2.2,-3.06 2.2,-4.27 0,-0.86 -0.8,-1.27 -3,-1.27 h -1.16 l 0.24,-0.92 h 13.9 m 9.4,29.52 -0.53,1.83 h -3.3 c 0.53,0.6 0.7,1.13 0.7,2.03 0,3.06 -2.17,5.6 -5.76,6.04 -2.4,0.33 -3.6,1.35 -3.6,2.36 0,2.57 9.5,0.94 9.5,6.04 0,2.9 -2.68,6.16 -8.76,6.16 -5.46,0 -7.5,-2.32 -7.5,-4.7 0,-2.36 2.24,-3.58 4.77,-4.4 -0.7,-0.44 -0.98,-1.22 -0.98,-1.9 0,-1.56 1.5,-3.56 3.47,-3.56 V 1071 c -2.73,-0.6 -3.84,-2.52 -3.84,-4.44 0,-3.22 2.78,-6.45 7.1,-6.45 1.7,0 2.98,0.55 3.6,1.16 h 5.13 m -6.36,2.6 c 0,-1.5 -0.4,-2.52 -2.2,-2.52 -2.2,0 -4,2.9 -4,5.67 0,1.88 0.5,3.3 2.28,3.3 2.9,0 3.92,-4.15 3.92,-6.43 m 0.53,17.05 c 0,-3.18 -5.4,-2.98 -7.83,-3.88 -0.33,0.2 -0.74,0.4 -1.06,0.66 -1.06,0.77 -1.95,1.83 -1.95,2.93 0,1.92 1.8,3.96 5.67,3.96 3.7,0 5.18,-1.9 5.18,-3.68"
     id="path152"
     inkscape:export-filename="/Users/aaron/path151.png"
     inkscape:export-xdpi="96.976402"
     inkscape:export-ydpi="96.976402" />
  <path
     d="m 565.02,861.2 c 0,6.07 -4.48,11 -10,11 -5.52,0 -10,-4.93 -10,-11 0,-6.08 4.48,-11 10,-11 5.52,0 10,4.92 10,11 z m 0,392 c 0,6.07 -4.48,11 -10,11 -5.52,0 -10,-4.93 -10,-11 0,-6.08 4.48,-11 10,-11 5.52,0 10,4.92 10,11 z"
     stroke="#000000"
     stroke-opacity="0"
     stroke-width="3"
     fill="#ffffff"
     id="path154"
     inkscape:export-filename="/Users/aaron/path151.png"
     inkscape:export-xdpi="96.976402"
     inkscape:export-ydpi="96.976402" />
  <path
     d="m 427.02,1051.85 c 0,26.5 -21.5,48 -48,48 -26.5,0 -48,-21.5 -48,-48 0,-26.5 21.5,-48 48,-48 26.5,0 48,21.5 48,48 z m -48,-24 h -6 m 6,0 h 6 m -6,0 v -6 m 0,6 v 6 m 0,42 h 6 m -6,0 h -6 m 6,-72 v -12 m 0,108 v 12"
     stroke="#000000"
     stroke-width="3"
     fill="#ffffff"
     id="path156"
     inkscape:export-filename="/Users/aaron/path151.png"
     inkscape:export-xdpi="96.976402"
     inkscape:export-ydpi="96.976402" />
  <path
     d="m 396.1,664.67 c 0,-2.76 2.24,-5 5,-5 h 45.64 c 2.77,0 5,2.24 5,5 v 57.53 c 0,2.76 -2.23,5 -5,5 H 401.1 c -2.76,0 -5,-2.24 -5,-5 z"
     fill="#ffffff"
     fill-opacity="0"
     id="path158"
     inkscape:export-filename="/Users/aaron/path151.png"
     inkscape:export-xdpi="96.976402"
     inkscape:export-ydpi="96.976402" />
  <path
     d="m 427.85,665.53 -0.24,0.95 h -1.13 c -4.55,0 -5.8,1.56 -6.35,3.72 l -7.37,29.77 c -0.1,0.48 -0.17,1.14 -0.17,1.74 0,1.27 1.13,2 4.67,2 h 1.02 l -0.24,0.95 h -19.65 l 0.24,-0.96 h 1.13 c 4.56,0 5.82,-1.7 6.3,-3.73 l 7.36,-29.77 c 0.13,-0.48 0.25,-1.02 0.25,-1.44 0,-1.32 -1,-2.28 -4.6,-2.28 h -1.1 l 0.25,-0.95 h 19.65 m 17.83,30.65 -0.55,1.9 h -3.43 c 0.55,0.64 0.72,1.2 0.72,2.12 0,3.18 -2.25,5.8 -5.97,6.27 -2.5,0.34 -3.73,1.4 -3.73,2.46 0,2.66 9.87,0.97 9.87,6.26 0,3 -2.8,6.4 -9.1,6.4 -5.67,0 -7.8,-2.42 -7.8,-4.88 0,-2.46 2.34,-3.73 4.96,-4.58 -0.72,-0.46 -1,-1.27 -1,-2 0,-1.6 1.55,-3.67 3.6,-3.67 v -0.17 c -2.85,-0.64 -4,-2.63 -4,-4.62 0,-3.34 2.9,-6.7 7.38,-6.7 1.77,0 3.1,0.56 3.72,1.2 h 5.34 m -6.6,2.7 c 0,-1.56 -0.43,-2.62 -2.3,-2.62 -2.28,0 -4.15,3 -4.15,5.9 0,1.94 0.5,3.42 2.38,3.42 3,0 4.06,-4.32 4.06,-6.7 m 0.54,17.7 c 0,-3.3 -5.6,-3.08 -8.13,-4 -0.33,0.2 -0.75,0.4 -1.1,0.67 -1.1,0.8 -2.02,1.9 -2.02,3.05 0,2 1.86,4.1 5.88,4.1 3.86,0 5.38,-1.94 5.38,-3.8"
     id="path160"
     inkscape:export-filename="/Users/aaron/path151.png"
     inkscape:export-xdpi="96.976402"
     inkscape:export-ydpi="96.976402" />
  <path
     d="m 399.27,737.85 h 31.04 m -30.98,0 h -2.56"
     stroke="#000000"
     stroke-width="5"
     fill="none"
     id="path162"
     inkscape:export-filename="/Users/aaron/path151.png"
     inkscape:export-xdpi="96.976402"
     inkscape:export-ydpi="96.976402" />
  <path
     d="m 447.07,737.85 -14.26,4.64 v -9.28 z"
     stroke="#000000"
     stroke-width="5"
     id="path164"
     inkscape:export-filename="/Users/aaron/path151.png"
     inkscape:export-xdpi="96.976402"
     inkscape:export-ydpi="96.976402" />
  <path
     d="m 493.62,729.2 h 16 v 16 h -16 z m -0.02,643.75 h 16 v 16 h -16 z"
     stroke="#000000"
     stroke-width="3"
     id="path166"
     inkscape:export-filename="/Users/aaron/path151.png"
     inkscape:export-xdpi="96.976402"
     inkscape:export-ydpi="96.976402" />
  <path
     d="m 379.02,1113.35 v 261.6 c 0,3.3 2.7,6 6,6 H 490.6"
     stroke="#000000"
     stroke-width="3"
     fill="none"
     id="path168"
     inkscape:export-filename="/Users/aaron/path151.png"
     inkscape:export-xdpi="96.976402"
     inkscape:export-ydpi="96.976402" />
  <path
     d="m 380.52,1113.4 h -3 v -1.55 h 3 z m 111.58,269.05 h -1.54 v -3 h 1.54 z"
     id="path170"
     inkscape:export-filename="/Users/aaron/path151.png"
     inkscape:export-xdpi="96.976402"
     inkscape:export-ydpi="96.976402" />
  <path
     d="M 379.02,990.35 V 743.2 c 0,-3.32 2.7,-6 6,-6 h 105.6"
     stroke="#000000"
     stroke-width="3"
     fill="none"
     id="path172"
     inkscape:export-filename="/Users/aaron/path151.png"
     inkscape:export-xdpi="96.976402"
     inkscape:export-ydpi="96.976402" />
  <path
     d="m 377.52,991.85 v -1.54 h 3 v 1.55 z M 492.12,738.7 h -1.54 v -3 h 1.54 z"
     id="path174"
     inkscape:export-filename="/Users/aaron/path151.png"
     inkscape:export-xdpi="96.976402"
     inkscape:export-ydpi="96.976402" />
  <path
     d="m 209.53,620.45 c 0,-3.3 2.7,-6 6,-6 H 2514 c 3.3,0 6,2.7 6,6 v 848 c 0,3.32 -2.7,6 -6,6 H 215.53 c -3.3,0 -6,-2.68 -6,-6 z"
     stroke="#000000"
     stroke-width="3"
     fill-opacity="0"
     id="path176"
     style="stroke:#000000;stroke-opacity:0"
     inkscape:export-filename="/Users/aaron/path151.png"
     inkscape:export-xdpi="96.976402"
     inkscape:export-ydpi="96.976402" />
  <path
     d="m 686.8,2122.2 c 0,5.52 -4.5,10 -10,10 -5.53,0 -10,-4.48 -10,-10 0,-5.53 4.47,-10 10,-10 5.5,0 10,4.47 10,10 z"
     stroke="#000000"
     stroke-opacity="0"
     stroke-width="3"
     id="path178" />
  <path
     d="m 554.16,1738.44 h 160 v 220 h -160 z"
     fill="none"
     id="path180" />
  <path
     d="m 556.56,1848.44 h 84 m -2.4,34.98 v -69.96 m 74.88,34.98 c 0,31.46 -22.72,56.76 -50.88,56.76 -28.16,0 -50.88,-25.3 -50.88,-56.76 0,-31.46 22.72,-56.76 50.88,-56.76 28.16,0 50.88,25.3 50.88,56.76 z m -36.48,110 v -77.88 h -28.8 v -64.24 h 28.8 v -77.88 m -122.4,110 h 86.4 m 7.2,-42.9 v 85.8 m 4.24,-10.16 h -0.12"
     stroke="#000000"
     stroke-width="3"
     fill="none"
     id="path182" />
  <path
     d="m 667.76,1880.84 -14.16,4.95 -0.2,-9.28 z"
     stroke="#000000"
     stroke-width="3"
     id="path184" />
  <path
     d="m 651.92,1881.2 -1.54,0.02"
     stroke="#000000"
     stroke-width="3"
     fill="none"
     id="path186" />
  <path
     d="m 661.92,1879.66 v -63.9 h 29.86 v 63.9 z"
     fill="none"
     id="path188" />
  <path
     d="m 676.85,1879.66 v -19.17 m -14.93,0 h 29.86 l -14.93,-19.18 -14.93,19.17 z m 0,-19.18 h 29.86 m -14.93,0 v -25.55 z"
     stroke="#000000"
     stroke-width="3"
     fill="#ffffff"
     id="path190" />
  <path
     d="m 676.8,2110.7 v -75.2 c 0,-0.1 0.07,-0.18 0.17,-0.18 0.1,0 0.2,-0.08 0.2,-0.2 v -75.18"
     stroke="#000000"
     stroke-width="3"
     fill="none"
     id="path192" />
  <path
     d="m 678.3,2112.4 -1.5,-0.2 -1.5,0.2 v -1.74 h 3 z m 0.36,-152.42 h -3 v -1.54 h 2.4 v -3 h 0.6 z"
     id="path194" />
  <path
     d="m 732.9,2132.82 h 160 v 220 h -160 z"
     fill="none"
     id="path196" />
  <path
     d="m 735.3,2242.82 h 84 m -2.4,34.98 v -69.96 m 74.87,34.98 c 0,31.46 -22.72,56.76 -50.88,56.76 -28.17,0 -50.9,-25.3 -50.9,-56.76 0,-31.46 22.73,-56.76 50.9,-56.76 28.15,0 50.87,25.3 50.87,56.76 z m -36.48,110 v -77.88 h -28.8 v -64.24 h 28.8 v -77.88 m -122.4,110 h 86.4 m 7.2,-42.9 v 85.8 m 4.24,-10.15 h -0.12"
     stroke="#000000"
     stroke-width="3"
     fill="none"
     id="path198" />
  <path
     d="m 846.5,2275.23 -14.17,4.94 -0.2,-9.27 z"
     stroke="#000000"
     stroke-width="3"
     id="path200" />
  <path
     d="m 830.65,2275.57 -1.54,0.03"
     stroke="#000000"
     stroke-width="3"
     fill="none"
     id="path202" />
  <path
     d="m 841.52,2273.66 v -63.9 h 29.85 v 63.9 z"
     fill="none"
     id="path204" />
  <path
     d="m 856.44,2273.66 v -19.17 m -14.92,0 h 29.85 l -14.93,-19.18 -14.92,19.17 z m 0,-19.18 h 29.85 m -14.93,0 v -25.55 z"
     stroke="#000000"
     stroke-width="3"
     fill="#ffffff"
     id="path206" />
  <path
     d="m 732.9,1738.44 h 160 v 220 h -160 z"
     fill="none"
     id="path208" />
  <path
     d="m 735.3,1848.44 h 84 m -2.4,34.98 v -69.96 m 74.87,34.98 c 0,31.46 -22.72,56.76 -50.88,56.76 -28.17,0 -50.9,-25.3 -50.9,-56.76 0,-31.46 22.73,-56.76 50.9,-56.76 28.15,0 50.87,25.3 50.87,56.76 z m -36.48,110 v -77.88 h -28.8 v -64.24 h 28.8 v -77.88 m -122.4,110 h 86.4 m 7.2,-42.9 v 85.8 m 4.23,-10.6 h -0.27"
     stroke="#000000"
     stroke-width="3"
     fill="none"
     id="path210" />
  <path
     d="m 846.5,1880.74 -14.28,4.63 v -9.27 z"
     stroke="#000000"
     stroke-width="3"
     id="path212" />
  <path
     d="m 830.5,1880.74 h -1.55"
     stroke="#000000"
     stroke-width="3"
     fill="none"
     id="path214" />
  <path
     d="m 865.84,1969.85 c 0,5.52 -4.48,10 -10,10 -5.52,0 -10,-4.48 -10,-10 0,-5.52 4.48,-10 10,-10 5.52,0 10,4.48 10,10 z"
     stroke="#000000"
     stroke-opacity="0"
     stroke-width="3"
     id="path216" />
  <path
     d="m 840.52,1878.66 v -63.9 h 29.85 v 63.9 z"
     fill="none"
     id="path218" />
  <path
     d="m 855.44,1878.66 v -19.17 m -14.92,0 h 29.85 l -14.93,-19.18 -14.92,19.17 z m 0,-19.18 h 29.85 m -14.93,0 v -25.55 z"
     stroke="#000000"
     stroke-width="3"
     fill="#ffffff"
     id="path220" />
  <path
     d="m 855.3,1959.92 v -1.48"
     stroke="#000000"
     stroke-width="3"
     fill="none"
     id="path222" />
  <path
     d="m 856.8,1959.98 h -3 v -1.54 h 3 z"
     id="path224" />
  <path
     d="m 856.8,1959.98 -0.96,-0.13 -2.05,0.27 v -1.74 h 3 z"
     id="path226" />
  <path
     d="m 553.3,2132.44 h 160 v 220 h -160 z"
     fill="none"
     id="path228" />
  <path
     d="m 555.7,2242.44 h 84 m -2.4,34.98 v -69.96 m 74.88,34.98 c 0,31.46 -22.72,56.76 -50.88,56.76 -28.16,0 -50.88,-25.3 -50.88,-56.76 0,-31.46 22.72,-56.76 50.88,-56.76 28.16,0 50.88,25.3 50.88,56.76 z m -36.48,110 v -77.88 h -28.8 v -64.24 h 28.8 v -77.88 m -122.4,110 h 86.4 m 7.2,-42.9 v 85.8 m 4.23,-10.6 h -0.27"
     stroke="#000000"
     stroke-width="3"
     fill="none"
     id="path230" />
  <path
     d="m 666.9,2274.74 -14.27,4.63 v -9.27 z"
     stroke="#000000"
     stroke-width="3"
     id="path232" />
  <path
     d="m 650.9,2274.74 h -1.54"
     stroke="#000000"
     stroke-width="3"
     fill="none"
     id="path234" />
  <path
     d="m 686.24,2368.95 c 0,5.52 -4.47,10 -10,10 -5.52,0 -10,-4.48 -10,-10 0,-5.52 4.48,-10 10,-10 5.53,0 10,4.48 10,10 z"
     stroke="#000000"
     stroke-opacity="0"
     stroke-width="3"
     id="path236" />
  <path
     d="m 660.92,2272.66 v -63.9 h 29.86 v 63.9 z"
     fill="none"
     id="path238" />
  <path
     d="m 675.85,2272.66 v -19.17 m -14.93,0 h 29.86 l -14.93,-19.18 -14.93,19.17 z m 0,-19.18 h 29.86 m -14.93,0 v -25.55 z"
     stroke="#000000"
     stroke-width="3"
     fill="#ffffff"
     id="path240" />
  <path
     d="m 675.7,2353.94 v 3.58"
     stroke="#000000"
     stroke-width="3"
     fill="none"
     id="path242" />
  <path
     d="m 677.2,2353.98 h -3 v -1.54 h 3 z m 0,5.09 -0.96,-0.12 -2.04,0.27 v -1.74 h 3 z"
     id="path244" />
  <path
     d="m 686.8,1725.2 c 0,5.52 -4.5,10 -10,10 -5.53,0 -10,-4.48 -10,-10 0,-5.53 4.47,-10 10,-10 5.5,0 10,4.47 10,10 z"
     stroke="#000000"
     stroke-opacity="0"
     stroke-width="3"
     id="path246" />
  <path
     d="m 676.56,1736.94 c 0,-0.07 0.05,-0.12 0.1,-0.12 0.08,0 0.13,-0.05 0.13,-0.12"
     stroke="#000000"
     stroke-width="3"
     fill="none"
     id="path248" />
  <path
     d="m 675.06,1738.44 v -1.54 h 3 v 1.54 z m 1.74,-3.24 1.5,-0.24 v 1.78 h -3 v -1.78 z"
     id="path250" />
  <path
     d="m 855.3,1736.94 v -6.74 c 0,-2.76 -2.25,-5 -5,-5 h -162"
     stroke="#000000"
     stroke-width="3"
     fill="none"
     id="path252" />
  <path
     d="m 853.8,1738.44 v -1.54 h 3 v 1.54 z M 688.33,1726.7 h -1.78 l 0.24,-1.5 -0.2,-1.5 h 1.73 z"
     id="path254" />
  <path
     d="m 855.84,1981.35 v 149.97"
     stroke="#000000"
     stroke-width="3"
     fill="none"
     id="path256" />
  <path
     d="m 857.34,1981.4 h -3 v -1.8 l 1.5,0.25 1.5,-0.24 z m 0,154.42 h -0.55 v -3 h -2.46 v -1.54 h 3 z"
     id="path258" />
  <path
     d="m 565.02,1849.2 c 0,6.07 -4.48,11 -10,11 -5.52,0 -10,-4.93 -10,-11 0,-6.08 4.48,-11 10,-11 5.52,0 10,4.92 10,11 z"
     stroke="#000000"
     stroke-width="3"
     fill="#ffffff"
     id="path260" />
  <path
     d="m 855.3,2354.32 v 14.63 H 687.73"
     stroke="#000000"
     stroke-width="3"
     fill="none"
     id="path262" />
  <path
     d="m 856.8,2354.36 h -3 v -1.54 h 3 z m -169.02,16.09 H 686 l 0.24,-1.5 -0.2,-1.5 h 1.74 z"
     id="path264" />
  <path
     d="m 565.02,2241.2 c 0,6.07 -4.48,11 -10,11 -5.52,0 -10,-4.93 -10,-11 0,-6.08 4.48,-11 10,-11 5.52,0 10,4.92 10,11 z"
     stroke="#000000"
     stroke-width="3"
     fill="#ffffff"
     id="path266" />
  <path
     d="m 554.16,1795.72 c 0,-2.76 2.24,-5 5,-5 h 43.26 c 2.77,0 5,2.24 5,5 v 37.48 c 0,2.76 -2.23,5 -5,5 h -43.26 c -2.76,0 -5,-2.24 -5,-5 z"
     fill="#ffffff"
     fill-opacity="0"
     id="path268" />
  <path
     d="m 582.5,1791.67 -2.22,11.16 -1,-0.17 c 0,-5.7 -1.23,-9.1 -6.65,-9.1 -3.85,0 -6.25,2.07 -6.25,5.6 0,2.72 0.45,3.6 5.53,8.7 5.1,5.13 6.3,7.53 6.3,11.15 0,6.38 -4.84,10.9 -11.26,10.9 -1.73,0 -3.24,-0.4 -5.8,-1.3 -1.5,-0.54 -2,-0.66 -2.63,-0.66 -1.1,0 -2,0.5 -2.4,1.8 h -1 l 1.9,-12.5 1.12,0.1 c -0.1,0.5 -0.1,0.9 -0.1,1.28 0,5.47 3.34,9.32 8.03,9.32 4.3,0 7.3,-2.9 7.3,-7.14 0,-2.4 -0.77,-4.07 -3.34,-6.86 l -2.17,-2.35 c -0.78,-0.85 -1.45,-1.63 -2.17,-2.35 -3.35,-3.57 -4.2,-5.36 -4.2,-8.37 0,-5.86 4.6,-9.16 9.94,-9.16 1.73,0 3.58,0.28 4.75,0.8 1.17,0.43 1.84,0.6 2.57,0.6 1.22,0 1.73,-0.28 2.5,-1.45 h 1.3 m 15.05,45.63 h -10.88 v -0.6 c 2.92,-0.15 3.75,-0.98 3.75,-3.15 v -17.72 c 0,-1.34 -0.36,-1.93 -1.2,-1.93 -0.38,0 -1.05,0.2 -1.76,0.47 l -1.06,0.4 v -0.56 l 7.06,-3.58 0.36,0.12 v 23.56 c 0,1.7 0.8,2.4 3.75,2.4 v 0.6"
     id="path270" />
  <path
     d="m 553.3,2190.26 c 0,-2.76 2.23,-5 5,-5 h 43.26 c 2.76,0 5,2.24 5,5 v 37.48 c 0,2.76 -2.24,5 -5,5 H 558.3 c -2.77,0 -5,-2.24 -5,-5 z"
     fill="#ffffff"
     fill-opacity="0"
     id="path272" />
  <path
     d="m 581.65,2186.2 -2.24,11.17 -1,-0.17 c 0,-5.7 -1.22,-9.1 -6.63,-9.1 -3.85,0 -6.25,2.07 -6.25,5.6 0,2.72 0.44,3.6 5.52,8.7 5.08,5.13 6.3,7.53 6.3,11.15 0,6.37 -4.85,10.9 -11.26,10.9 -1.73,0 -3.24,-0.4 -5.8,-1.3 -1.52,-0.55 -2.02,-0.67 -2.63,-0.67 -1.12,0 -2,0.5 -2.4,1.8 h -1 l 1.9,-12.5 1.1,0.1 c -0.1,0.5 -0.1,0.9 -0.1,1.28 0,5.47 3.34,9.32 8.03,9.32 4.3,0 7.3,-2.9 7.3,-7.14 0,-2.4 -0.77,-4.07 -3.34,-6.86 l -2.17,-2.35 c -0.78,-0.84 -1.45,-1.62 -2.18,-2.34 -3.36,-3.58 -4.2,-5.37 -4.2,-8.38 0,-5.86 4.58,-9.16 9.94,-9.16 1.73,0 3.57,0.28 4.74,0.8 1.18,0.43 1.85,0.6 2.57,0.6 1.23,0 1.73,-0.28 2.5,-1.45 h 1.3 m 18.25,40.23 -2.13,5.4 h -15.43 v -0.47 l 7.02,-7.45 c 3.7,-3.9 5.13,-6.9 5.13,-10.25 0,-3.6 -2.14,-5.57 -5.5,-5.57 -2.83,0 -4.2,1.26 -5.8,5.13 l -0.82,-0.2 c 0.83,-4.6 3.35,-7.84 8.2,-7.84 4.47,0 7.3,3.04 7.3,6.95 0,3.12 -1.53,6.08 -5.04,9.8 l -6.5,6.94 h 9.22 c 1.66,0 2.5,-0.44 3.8,-2.65"
     id="path274" />
  <path
     d="m 738.77,1794.4 c 0,-2.75 2.24,-5 5,-5 h 43.27 c 2.76,0 5,2.25 5,5 v 38.04 c 0,2.76 -2.24,5 -5,5 h -43.27 c -2.76,0 -5,-2.24 -5,-5 z"
     fill="#ffffff"
     fill-opacity="0"
     id="path276" />
  <path
     d="m 767.12,1790.36 -2.23,11.16 -1,-0.17 c 0,-5.7 -1.24,-9.1 -6.65,-9.1 -3.85,0 -6.25,2.07 -6.25,5.6 0,2.72 0.44,3.6 5.52,8.7 5.08,5.13 6.3,7.53 6.3,11.15 0,6.37 -4.85,10.9 -11.27,10.9 -1.73,0 -3.23,-0.4 -5.8,-1.3 -1.5,-0.55 -2,-0.67 -2.62,-0.67 -1.12,0 -2,0.5 -2.4,1.8 h -1 l 1.9,-12.5 1.1,0.1 c -0.1,0.5 -0.1,0.9 -0.1,1.28 0,5.48 3.34,9.33 8.03,9.33 4.3,0 7.3,-2.9 7.3,-7.14 0,-2.4 -0.77,-4.08 -3.34,-6.87 l -2.17,-2.35 c -0.8,-0.84 -1.45,-1.62 -2.18,-2.34 -3.35,-3.57 -4.2,-5.36 -4.2,-8.37 0,-5.86 4.6,-9.16 9.95,-9.16 1.73,0 3.57,0.3 4.74,0.8 1.17,0.44 1.84,0.6 2.57,0.6 1.23,0 1.73,-0.27 2.5,-1.44 h 1.3 m 1.96,25.49 -0.63,-0.16 c 1.14,-3.74 3.63,-6.4 7.73,-6.4 3.67,0 6.16,2.18 6.16,5.42 0,1.9 -1.03,3.87 -3.67,5.44 1.74,0.75 2.45,1.23 3.28,2.1 1.1,1.22 1.73,3.03 1.73,5.1 0,2.08 -0.67,4 -1.8,5.5 -1.9,2.54 -5.66,3.68 -9.17,3.68 -2.87,0 -4.4,-0.83 -4.4,-2.25 0,-0.84 0.7,-1.43 1.6,-1.43 0.68,0 1.3,0.24 2.42,1.03 1.46,1.02 2.3,1.22 3.4,1.22 2.9,0 5.12,-2.68 5.12,-6.04 0,-3 -1.38,-4.93 -4.1,-5.72 -0.87,-0.28 -1.78,-0.4 -4.03,-0.4 v -0.55 c 1.5,-0.5 2.54,-0.93 3.33,-1.4 1.93,-1.1 3.2,-2.9 3.2,-5.3 0,-2.68 -1.67,-4.02 -4.27,-4.02 -2.45,0 -4.26,1.26 -5.88,4.18"
     id="path278" />
  <path
     d="m 752.32,1848.44 c 0,6.08 -4.47,11 -10,11 -5.52,0 -10,-4.92 -10,-11 0,-6.07 4.48,-11 10,-11 5.53,0 10,4.93 10,11 z m -0.65,393.26 c 0,6.1 -4.47,11 -10,11 -5.52,0 -10,-4.9 -10,-11 0,-6.06 4.48,-11 10,-11 5.53,0 10,4.94 10,11 z"
     stroke="#000000"
     stroke-width="3"
     fill="#ffffff"
     id="path280" />
  <path
     d="m 732.32,2188.23 c 0,-2.76 2.24,-5 5,-5 h 43.27 c 2.75,0 5,2.24 5,5 v 37.48 c 0,2.77 -2.25,5 -5,5 H 737.3 c -2.76,0 -5,-2.23 -5,-5 z"
     fill="#ffffff"
     fill-opacity="0"
     id="path282" />
  <path
     d="m 760.67,2184.18 -2.23,11.16 -1,-0.16 c 0,-5.7 -1.23,-9.1 -6.64,-9.1 -3.85,0 -6.25,2.06 -6.25,5.58 0,2.74 0.44,3.63 5.52,8.7 5.08,5.14 6.3,7.54 6.3,11.17 0,6.36 -4.85,10.88 -11.27,10.88 -1.73,0 -3.23,-0.38 -5.8,-1.27 -1.5,-0.56 -2,-0.67 -2.62,-0.67 -1.12,0 -2,0.5 -2.4,1.78 h -1 l 1.9,-12.5 1.1,0.1 c -0.1,0.52 -0.1,0.9 -0.1,1.3 0,5.47 3.34,9.32 8.03,9.32 4.3,0 7.32,-2.9 7.32,-7.15 0,-2.4 -0.78,-4.06 -3.35,-6.85 l -2.17,-2.34 c -0.78,-0.83 -1.45,-1.6 -2.18,-2.34 -3.35,-3.57 -4.18,-5.36 -4.18,-8.37 0,-5.87 4.57,-9.16 9.93,-9.16 1.73,0 3.57,0.28 4.74,0.78 1.18,0.45 1.85,0.6 2.58,0.6 1.23,0 1.73,-0.27 2.5,-1.44 h 1.3 m 18.2,39.02 h -4.07 v 6.6 h -3.08 v -6.6 H 760.7 v -2.52 l 12.4,-17.56 h 1.73 v 17.56 h 4.06 v 2.52 m -7.15,-2.52 v -13.54 l -9.47,13.54 h 9.47"
     id="path284" />
  <path
     d="M 512.62,1725.2 H 665.3 m -152.64,0 h -1.54"
     stroke="#000000"
     stroke-width="3"
     fill="none"
     id="path286" />
  <path
     d="m 666.8,1725.2 0.23,1.5 h -1.78 v -3 H 667 Z"
     id="path288" />
  <path
     d="m 512.6,2368.95 h 152.14 m -152.1,0 h -1.54"
     stroke="#000000"
     stroke-width="3"
     fill="none"
     id="path290" />
  <path
     d="m 666.24,2368.95 0.24,1.5 h -1.78 v -3 h 1.74 z"
     id="path292" />
  <path
     d="m 950.48,1961.45 h 16 v 16 h -16 z m 0.08,153 h 16 v 16 h -16 z"
     stroke="#000000"
     stroke-width="3"
     id="path294" />
  <path
     d="M 688.3,2122.2 H 947.56"
     stroke="#000000"
     stroke-width="3"
     fill="none"
     id="path296" />
  <path
     d="m 688.33,2123.7 h -1.78 l 0.24,-1.5 -0.2,-1.5 h 1.73 z m 260.73,0 h -1.54 v -3 h 1.54 z"
     id="path298" />
  <path
     d="m 867.34,1969.85 h 80.14"
     stroke="#000000"
     stroke-width="3"
     fill="none"
     id="path300" />
  <path
     d="m 867.38,1971.35 h -1.78 l 0.24,-1.5 -0.2,-1.5 h 1.74 z m 81.6,0 h -1.54 v -3 h 1.54 z"
     id="path302" />
  <path
     d="m 209.53,1600.45 c 0,-3.3 2.7,-6 6,-6 H 2514 c 3.3,0 6,2.7 6,6 v 848 c 0,3.32 -2.7,6 -6,6 H 215.53 c -3.3,0 -6,-2.68 -6,-6 z"
     stroke="#000000"
     stroke-width="3"
     fill-opacity="0"
     id="path304" />
  <path
     d="m 2290.3,3264.8 -49.04,-49.05 49.04,-49.04 49.03,49.05 z m 0,-73.57 v 44.13 h -2.46 4.9 l -2.44,4.9 -2.46,-4.9 h 2.46 m 0,29.43 v 12.25 m 0,-110.34 v -12.25"
     stroke="#000000"
     stroke-width="3"
     fill="#ffffff"
     id="path306" />
  <path
     d="m 2343,3181 c 0,-2.75 2.24,-5 5,-5 h 162.4 c 2.76,0 5,2.25 5,5 v 69.5 c 0,2.75 -2.24,5 -5,5 H 2348 c -2.76,0 -5,-2.25 -5,-5 z"
     fill="#ffffff"
     fill-opacity="0"
     id="path308" />
  <path
     d="m 2368.9,3196.04 -0.2,0.78 h -0.92 c -3.72,0 -4.74,1.27 -5.18,3.03 l -6,24.3 c -0.1,0.38 -0.16,0.9 -0.16,1.4 0,1.03 0.93,1.62 3.8,1.62 h 0.84 l -0.2,0.78 h -16.02 l 0.2,-0.78 h 0.92 c 3.7,0 4.74,-1.37 5.13,-3.03 l 6.02,-24.3 c 0.1,-0.38 0.2,-0.82 0.2,-1.16 0,-1.08 -0.83,-1.86 -3.76,-1.86 h -0.88 l 0.2,-0.78 h 16.02 m 20.63,32.7 -2.1,6.57 h -19.67 l 0.14,-0.55 h 0.6 c 2.6,0 3.42,-0.96 3.7,-2.14 l 4.07,-16.47 c 0.14,-0.55 0.24,-1.24 0.24,-1.55 0,-0.66 -0.47,-1.28 -2.6,-1.28 h -0.63 l 0.13,-0.55 h 11.3 l -0.14,0.55 h -0.62 c -2.6,0 -3.32,0.9 -3.63,2.17 l -4.2,16.62 c -0.14,0.5 -0.17,1 -0.17,1.06 0,0.76 0.96,0.83 1.38,0.83 h 4.22 c 3.53,0 5.3,-0.77 6.88,-3.98 0.24,-0.38 0.4,-0.8 0.6,-1.28 h 0.54 m 50.96,-16.44 h -28.78 v -3.22 h 28.78 v 3.23 m 0,9.78 h -28.78 v -3.22 h 28.78 v 3.22 m 21.76,-4.89 h 47.14 v -2.94 h -47.15 z m 9.86,-37.86 h 9.37 c 5.87,0 8,2.97 8,5.53 0,3.38 -2.8,6.87 -9.83,6.87 -0.97,0 -1.73,-0.03 -2.56,-0.17 -0.17,0 -0.28,-0.03 -0.42,-0.07 l -1.93,7.7 c -0.08,0.28 -0.1,0.52 -0.1,0.8 0,0.83 0.6,1.35 2.65,1.35 h 1.1 l -0.14,0.55 h -11.77 l 0.14,-0.55 h 0.6 c 2.65,0 3.34,-0.97 3.65,-2.14 l 4.32,-17.17 c 0.07,-0.27 0.14,-0.58 0.14,-0.86 0,-0.72 -0.6,-1.28 -2.7,-1.28 h -0.65 m 7.4,0.82 -2.36,9.47 c 0.55,0.13 1.38,0.26 2.07,0.26 3.53,0 6.3,-2.4 6.3,-5.94 0,-2.07 -1.05,-3.9 -4.33,-3.9 -0.58,0 -1.1,0.03 -1.68,0.1 m 22.64,21.75 -1.5,4.65 h -13.9 l 0.1,-0.4 h 0.4 c 1.85,0 2.43,-0.67 2.63,-1.5 l 2.88,-11.66 c 0.1,-0.4 0.17,-0.88 0.17,-1.1 0,-0.46 -0.34,-0.9 -1.85,-0.9 h -0.44 l 0.1,-0.4 h 7.98 l -0.1,0.4 h -0.43 c -1.83,0 -2.34,0.64 -2.56,1.54 l -2.98,11.75 c -0.1,0.37 -0.12,0.7 -0.12,0.76 0,0.53 0.68,0.58 0.98,0.58 h 2.98 c 2.5,0 3.73,-0.54 4.86,-2.8 0.17,-0.28 0.3,-0.58 0.4,-0.92 h 0.4 m -10.3,21.98 -0.14,0.56 c -2.24,0.14 -3.66,1.48 -4.56,2.66 l -15.24,19.9 h -0.82 v -19.73 c 0,-2 -1.3,-2.83 -3.42,-2.83 l 0.14,-0.56 h 10.16 l -0.14,0.56 h -0.65 c -2.26,0 -2.43,1.28 -2.43,2.42 v 13.5 l 0.14,0.04 9.68,-12.65 c 0.66,-0.8 1.3,-1.82 1.3,-2.54 0,-0.52 -0.47,-0.76 -1.78,-0.76 h -0.7 l 0.14,-0.56 h 8.33 m 9.92,23.12 -1.5,4.64 h -13.9 l 0.1,-0.38 h 0.42 c 1.83,0 2.42,-0.68 2.6,-1.52 l 2.9,-11.65 c 0.1,-0.4 0.17,-0.88 0.17,-1.1 0,-0.46 -0.35,-0.9 -1.87,-0.9 h -0.44 l 0.1,-0.4 h 7.98 l -0.1,0.4 h -0.44 c -1.83,0 -2.35,0.63 -2.57,1.54 l -2.98,11.74 c -0.1,0.36 -0.13,0.7 -0.13,0.76 0,0.53 0.7,0.58 0.98,0.58 h 2.98 c 2.5,0 3.74,-0.54 4.86,-2.8 0.16,-0.28 0.3,-0.57 0.4,-0.9 h 0.4"
     id="path310" />
  <path
     d="m 2180.43,3194.6 c 0,-2.77 2.24,-5 5,-5 H 2230 c 2.76,0 5,2.23 5,5 v 36.48 c 0,2.76 -2.24,5 -5,5 h -44.57 c -2.76,0 -5,-2.24 -5,-5 z"
     fill="#ffffff"
     fill-opacity="0"
     id="path312" />
  <path
     d="m 2215.68,3194.12 -0.18,0.75 c -3.02,0.18 -4.92,2 -6.13,3.57 l -20.45,26.7 h -1.12 v -26.47 c 0,-2.7 -1.76,-3.8 -4.6,-3.8 l 0.2,-0.75 h 13.63 l -0.18,0.75 h -0.88 c -3.02,0 -3.25,1.7 -3.25,3.24 v 18.15 l 0.2,0.04 12.97,-16.98 c 0.87,-1.12 1.76,-2.46 1.76,-3.43 0,-0.7 -0.65,-1.03 -2.42,-1.03 h -0.92 l 0.18,-0.75 h 11.18 m 13.33,31.06 -2,6.23 h -18.66 l 0.13,-0.53 h 0.55 c 2.46,0 3.25,-0.92 3.5,-2.03 l 3.88,-15.64 c 0.13,-0.53 0.23,-1.18 0.23,-1.48 0,-0.62 -0.46,-1.2 -2.5,-1.2 h -0.58 l 0.13,-0.54 h 10.73 l -0.13,0.53 h -0.6 c -2.45,0 -3.13,0.86 -3.43,2.07 l -4,15.78 c -0.13,0.5 -0.16,0.95 -0.16,1 0,0.74 0.9,0.8 1.3,0.8 h 4 c 3.35,0 5.03,-0.72 6.53,-3.77 0.24,-0.36 0.4,-0.75 0.57,-1.2 h 0.53"
     id="path314" />
  <path
     d="m 2200.94,3127.77 c 0,-2.76 2.24,-5 5,-5 h 37.85 c 2.75,0 5,2.24 5,5 v 33.42 c 0,2.75 -2.25,5 -5,5 h -37.86 c -2.76,0 -5,-2.25 -5,-5 z"
     fill="#ffffff"
     fill-opacity="0"
     id="path316" />
  <path
     d="m 2245.33,3146.78 h -18.22 V 3165 h -4.6 v -18.22 h -18.2 v -4.6 h 18.2 v -18.22 h 4.6 v 18.22 h 18.23 v 4.6"
     id="path318" />
  <path
     d="m 2200.27,3273.47 c 0,-2.76 2.24,-5 5,-5 h 37.85 c 2.76,0 5,2.24 5,5 v 12.27 c 0,2.76 -2.24,5 -5,5 h -37.85 c -2.76,0 -5,-2.24 -5,-5 z"
     fill="#ffffff"
     fill-opacity="0"
     id="path320" />
  <path
     d="m 2243.62,3274.26 h -38.88 v -4.6 h 38.88 v 4.6"
     id="path322" />
  <path
     d="m 209.53,2680.45 c 0,-3.3 2.7,-6 6,-6 H 2514 c 3.3,0 6,2.7 6,6 v 848 c 0,3.32 -2.7,6 -6,6 H 215.53 c -3.3,0 -6,-2.68 -6,-6 z"
     stroke="#000000"
     stroke-width="3"
     fill-opacity="0"
     id="path324" />
  <path
     d="m 2290.3,3278.55 v 95.38 c 0,3.32 -2.7,6 -6,6 h -115.94"
     stroke="#000000"
     stroke-width="3"
     fill="none"
     id="path326" />
  <path
     d="m 2291.8,3278.58 h -3 v -1.53 h 3 v -3 z"
     id="path328" />
  <path
     d="m 2168.4,3379.93 h -1.54 m 123.44,-226.98 v -95.1 c 0,-3.3 -2.7,-6 -6,-6 h -115.8"
     stroke="#000000"
     stroke-width="3"
     fill="none"
     id="path330" />
  <path
     d="m 2291.8,3157.45 v -3 h -3 v -1.53 h 3 z"
     id="path332" />
  <path
     d="M 2168.55,3051.85 H 2167"
     stroke="#000000"
     stroke-width="3"
     fill="none"
     id="path334" />
  <path
     d="m 240,3700.45 c 0,-3.3 2.7,-6 6,-6 h 2298.47 c 3.3,0 6,2.7 6,6 v 848 c 0,3.32 -2.7,6 -6,6 H 246 c -3.3,0 -6,-2.68 -6,-6 z"
     stroke="#000000"
     stroke-width="3"
     fill-opacity="0"
     id="path336" />
  <path
     d="m 2300.44,4284.78 -49.04,-49.04 49.04,-49.03 49.04,49.04 z m 0,-73.56 v 44.14 h -2.44 4.9 l -2.46,4.9 -2.45,-4.9 h 2.44 m 0,29.42 v 12.26 m 0,-110.33 v -12.25"
     stroke="#000000"
     stroke-width="3"
     fill="#ffffff"
     id="path338" />
  <path
     d="m 2358.14,4201 c 0,-2.76 2.24,-5 5,-5 h 167.05 c 2.75,0 5,2.24 5,5 v 69.48 c 0,2.76 -2.25,5 -5,5 h -167.06 c -2.76,0 -5,-2.24 -5,-5 z"
     fill="#ffffff"
     fill-opacity="0"
     id="path340" />
  <path
     d="m 2395.28,4216.03 -0.2,0.78 c -3.17,0.2 -5.17,2.1 -6.44,3.77 l -21.55,28.15 h -1.2 v -27.9 c 0,-2.84 -1.84,-4 -4.83,-4 l 0.2,-0.8 h 14.37 l -0.2,0.8 h -0.93 c -3.16,0 -3.4,1.8 -3.4,3.4 v 19.12 l 0.2,0.05 13.67,-17.9 c 0.93,-1.17 1.86,-2.6 1.86,-3.6 0,-0.75 -0.7,-1.1 -2.54,-1.1 h -1 l 0.2,-0.77 h 11.78 m 14.03,32.7 -2.1,6.57 h -19.66 l 0.14,-0.55 h 0.6 c 2.58,0 3.4,-0.97 3.7,-2.15 l 4.06,-16.48 c 0.14,-0.55 0.25,-1.24 0.25,-1.55 0,-0.66 -0.5,-1.28 -2.64,-1.28 h -0.62 l 0.14,-0.56 h 11.3 l -0.14,0.55 h -0.63 c -2.58,0 -3.3,0.9 -3.6,2.17 l -4.23,16.62 c -0.14,0.5 -0.17,1 -0.17,1.06 0,0.76 0.97,0.83 1.38,0.83 h 4.22 c 3.52,0 5.28,-0.77 6.87,-4 0.24,-0.37 0.42,-0.78 0.6,-1.27 h 0.54 m 51.02,-16.39 h -28.8 v -3.22 h 28.8 v 3.22 m 0,9.78 h -28.8 v -3.23 h 28.8 v 3.23 m 21.74,-4.88 h 47.16 v -2.94 h -47.16 z m 9.88,-37.87 h 9.36 c 5.88,0 8.03,2.97 8.03,5.53 0,3.4 -2.8,6.88 -9.85,6.88 -0.97,0 -1.73,-0.04 -2.56,-0.18 -0.17,0 -0.27,-0.03 -0.4,-0.07 l -1.95,7.7 c -0.06,0.27 -0.1,0.52 -0.1,0.8 0,0.82 0.62,1.34 2.66,1.34 h 1.1 l -0.13,0.55 h -11.78 l 0.14,-0.56 h 0.58 c 2.66,0 3.35,-0.97 3.66,-2.14 l 4.32,-17.17 c 0.07,-0.28 0.14,-0.6 0.14,-0.87 0,-0.72 -0.6,-1.28 -2.7,-1.28 h -0.65 m 7.4,0.83 -2.35,9.48 c 0.56,0.14 1.4,0.28 2.08,0.28 3.52,0 6.3,-2.42 6.3,-5.95 0,-2.06 -1.05,-3.9 -4.33,-3.9 -0.6,0 -1.1,0.04 -1.7,0.1 m 22.63,21.75 -1.5,4.65 h -13.9 l 0.1,-0.4 h 0.42 c 1.83,0 2.42,-0.68 2.6,-1.5 l 2.9,-11.66 c 0.1,-0.4 0.17,-0.88 0.17,-1.1 0,-0.47 -0.34,-0.9 -1.86,-0.9 h -0.44 l 0.1,-0.4 h 8 l -0.1,0.4 h -0.45 c -1.84,0 -2.35,0.63 -2.57,1.53 l -2.98,11.76 c -0.1,0.36 -0.13,0.7 -0.13,0.75 0,0.54 0.7,0.6 0.98,0.6 h 2.98 c 2.5,0 3.74,-0.55 4.86,-2.82 0.18,-0.27 0.3,-0.56 0.42,-0.9 h 0.4 m -16.58,21.98 -0.14,0.55 h -0.65 c -2.63,0 -3.36,0.9 -3.67,2.13 l -4.24,17.17 c -0.07,0.28 -0.1,0.66 -0.1,1 0,0.73 0.66,1.15 2.7,1.15 h 0.58 l -0.14,0.55 h -11.33 l 0.14,-0.55 h 0.67 c 2.62,0 3.35,-0.97 3.62,-2.15 l 4.24,-17.17 c 0.07,-0.27 0.14,-0.6 0.14,-0.83 0,-0.76 -0.6,-1.3 -2.66,-1.3 h -0.62 l 0.14,-0.56 h 11.33 m 14.59,23.13 -1.5,4.64 h -13.9 l 0.1,-0.4 h 0.42 c 1.82,0 2.4,-0.67 2.6,-1.5 l 2.9,-11.66 c 0.1,-0.4 0.16,-0.88 0.16,-1.1 0,-0.46 -0.34,-0.9 -1.86,-0.9 h -0.44 l 0.1,-0.4 h 8 l -0.1,0.4 h -0.45 c -1.82,0 -2.33,0.63 -2.55,1.54 l -2.98,11.75 c -0.1,0.37 -0.13,0.7 -0.13,0.76 0,0.53 0.7,0.57 0.98,0.57 h 2.98 c 2.5,0 3.74,-0.53 4.87,-2.8 0.17,-0.27 0.3,-0.57 0.4,-0.9 h 0.4"
     id="path342" />
  <path
     d="m 2300.44,4298.54 v 95.4 c 0,3.3 -2.7,6 -6,6 h -95.94"
     stroke="#000000"
     stroke-width="3"
     fill="none"
     id="path344" />
  <path
     d="m 2301.94,4298.58 h -3 v -1.54 h 3 v -3 z"
     id="path346" />
  <path
     d="M 2198.54,4399.93 H 2197 m 103.44,-226.98 v -95.1 c 0,-3.32 -2.7,-6 -6,-6 h -95.78"
     stroke="#000000"
     stroke-width="3"
     fill="none"
     id="path348" />
  <path
     d="m 2301.94,4177.45 v -3 h -3 v -1.54 h 3 z"
     id="path350" />
  <path
     d="m 2198.7,4071.84 h -1.54"
     stroke="#000000"
     stroke-width="3"
     fill="none"
     id="path352" />
  <path
     d="m 2219.5,4072.1 h 31.04 m -30.98,0 H 2217"
     stroke="#000000"
     stroke-width="5"
     fill="none"
     id="path354" />
  <path
     d="m 2267.3,4072.1 -14.26,4.64 v -9.27 z"
     stroke="#000000"
     stroke-width="5"
     id="path356" />
  <path
     d="m 2300.63,4186.4 49.2,49.2 -49.2,49.18 -49.2,-49.2 z m 0,24.6 h -6.15 m 6.15,0 h 6.15 m -6.15,0 v -6.15 m 0,6.15 v 6.15 m 0,43.04 h 6.15 m -6.15,0 h -6.15 m 6.15,-73.8 v -12.3 m 0,110.68 v 12.3"
     stroke="#000000"
     stroke-width="3"
     fill="#ffffff"
     id="path358" />
  <path
     d="m 2217,4005.3 c 0,-2.75 2.24,-5 5,-5 h 51.26 c 2.76,0 5,2.25 5,5 v 46.8 c 0,2.75 -2.24,5 -5,5 H 2222 c -2.76,0 -5,-2.25 -5,-5 z"
     fill="#ffffff"
     fill-opacity="0"
     id="path360" />
  <path
     d="m 2247.02,4005.85 -0.23,0.9 h -1.08 c -4.3,0 -5.5,1.48 -6,3.52 l -6.97,28.15 c -0.12,0.46 -0.17,1.08 -0.17,1.65 0,1.18 1.07,1.86 4.42,1.86 h 0.96 l -0.23,0.9 h -18.58 l 0.23,-0.9 h 1.08 c 4.3,0 5.5,-1.58 5.94,-3.5 l 6.97,-28.16 c 0.1,-0.45 0.23,-0.96 0.23,-1.36 0,-1.23 -0.97,-2.14 -4.36,-2.14 h -1.02 l 0.22,-0.9 h 18.58 m 23.93,37.89 -2.44,7.6 h -22.8 l 0.17,-0.63 h 0.68 c 3,0 3.97,-1.12 4.3,-2.48 l 4.72,-19.1 c 0.16,-0.65 0.28,-1.45 0.28,-1.8 0,-0.77 -0.56,-1.5 -3.05,-1.5 h -0.72 l 0.16,-0.63 h 13.1 l -0.16,0.64 h -0.72 c -3,0 -3.85,1.04 -4.2,2.52 l -4.9,19.27 c -0.15,0.6 -0.2,1.16 -0.2,1.24 0,0.87 1.13,0.95 1.6,0.95 h 4.9 c 4.08,0 6.12,-0.88 7.96,-4.6 0.28,-0.45 0.48,-0.93 0.68,-1.5 h 0.64"
     id="path362" />
  <path
     d="m 2339.4,5271.6 c 0,-2.77 2.25,-5 5,-5 h 57.9 c 2.75,0 5,2.23 5,5 v 47.83 c 0,2.76 -2.25,5 -5,5 h -57.9 c -2.75,0 -5,-2.24 -5,-5 z"
     fill="#ffffff"
     fill-opacity="0"
     id="path364" />
  <path
     d="m 2383.26,5272.24 -0.23,0.92 c -3.75,0.23 -6.12,2.48 -7.62,4.44 l -25.43,33.23 h -1.38 v -32.94 c 0,-3.36 -2.2,-4.74 -5.72,-4.74 l 0.23,-0.92 h 16.97 l -0.23,0.92 h -1.1 c -3.75,0 -4.04,2.13 -4.04,4.04 v 22.56 l 0.23,0.05 16.16,-21.1 c 1.08,-1.4 2.18,-3.06 2.18,-4.27 0,-0.87 -0.8,-1.27 -3,-1.27 h -1.15 l 0.23,-0.92 h 13.9 m 16.56,38.61 -2.5,7.75 h -23.2 l 0.17,-0.65 h 0.68 c 3.06,0 4.04,-1.15 4.37,-2.53 l 4.8,-19.46 c 0.17,-0.65 0.3,-1.47 0.3,-1.83 0,-0.78 -0.58,-1.5 -3.1,-1.5 h -0.74 l 0.17,-0.67 h 13.34 l -0.15,0.66 h -0.74 c -3.04,0 -3.9,1.06 -4.27,2.57 l -4.97,19.6 c -0.17,0.62 -0.2,1.2 -0.2,1.27 0,0.9 1.13,0.98 1.62,0.98 h 4.98 c 4.16,0 6.24,-0.9 8.12,-4.7 0.28,-0.44 0.5,-0.93 0.7,-1.5 h 0.64"
     id="path366" />
  <path
     d="m 2319.4,5187.85 c 0,-2.76 2.25,-5 5,-5 h 37.86 c 2.76,0 5,2.24 5,5 v 33.42 c 0,2.76 -2.24,5 -5,5 h -37.85 c -2.75,0 -5,-2.24 -5,-5 z"
     fill="#ffffff"
     fill-opacity="0"
     id="path368" />
  <path
     d="m 2363.8,5206.86 h -18.2 v 18.22 h -4.62 v -18.22 h -18.22 v -4.6 h 18.22 v -18.22 h 4.6 v 18.22 h 18.22 v 4.6"
     id="path370" />
  <path
     d="m 2319.4,5389.2 c 0,-2.76 2.25,-5 5,-5 h 37.86 c 2.76,0 5,2.24 5,5 v 12.27 c 0,2.76 -2.24,5 -5,5 h -37.85 c -2.75,0 -5,-2.24 -5,-5 z"
     fill="#ffffff"
     fill-opacity="0"
     id="path372" />
  <path
     d="m 2362.76,5390 h -38.88 v -4.6 h 38.88 v 4.6"
     id="path374" />
  <path
     d="m 2216.4,5078.92 c 0,-2.76 2.23,-5 5,-5 h 54.8 c 2.75,0 5,2.24 5,5 v 50.05 c 0,2.76 -2.25,5 -5,5 h -54.8 c -2.77,0 -5,-2.24 -5,-5 z"
     fill="#ffffff"
     fill-opacity="0"
     id="path376" />
  <path
     d="m 2248.15,5079.78 -0.24,0.96 h -1.13 c -4.56,0 -5.8,1.55 -6.35,3.7 l -7.37,29.8 c -0.12,0.46 -0.18,1.12 -0.18,1.72 0,1.26 1.14,1.98 4.67,1.98 h 1.02 l -0.24,0.96 h -19.65 l 0.24,-0.96 h 1.15 c 4.55,0 5.8,-1.68 6.3,-3.7 l 7.36,-29.8 c 0.13,-0.47 0.25,-1 0.25,-1.43 0,-1.3 -1.02,-2.26 -4.62,-2.26 h -1.07 l 0.24,-0.96 h 19.65 m 25.27,40.08 -2.6,8.05 h -24.1 l 0.18,-0.68 h 0.72 c 3.18,0 4.2,-1.18 4.53,-2.62 l 5,-20.2 c 0.17,-0.7 0.3,-1.53 0.3,-1.9 0,-0.82 -0.6,-1.58 -3.22,-1.58 h -0.76 l 0.17,-0.68 h 13.85 l -0.17,0.68 h -0.76 c -3.2,0 -4.08,1.1 -4.46,2.67 l -5.17,20.38 c -0.17,0.64 -0.2,1.23 -0.2,1.3 0,0.95 1.18,1.03 1.68,1.03 h 5.17 c 4.32,0 6.48,-0.92 8.43,-4.86 0.3,-0.47 0.5,-0.97 0.72,-1.57 h 0.68"
     id="path378" />
  <path
     d="m 2209.75,5151.85 h 32 m -31.95,0 h -2.55"
     stroke="#000000"
     stroke-width="5"
     fill="none"
     id="path380" />
  <path
     d="m 2258.5,5151.85 -14.26,4.64 v -9.28 z"
     stroke="#000000"
     stroke-width="5"
     id="path382" />
  <g
     fill="none"
     id="g388">
    <path
       d="m 2345.9,5224.2 v 160 h -80 v -160 z"
       id="path384" />
    <path
       d="m 2305.9,5224.2 v 36 l 12,8 -24,12 24,12 -24,12 24,12 -24,12 24,12 -24,12 12,8 v 24"
       stroke="#000000"
       stroke-width="3"
       id="path386" />
  </g>
  <path
     d="m 2305.9,5385.7 v 94.23 h -122.2"
     stroke="#000000"
     stroke-width="3"
     fill="none"
     id="path390" />
  <path
     d="m 2307.4,5385.74 h -3 v -1.54 h 3 z"
     id="path392" />
  <path
     d="m 2183.74,5479.93 h -1.54"
     stroke="#000000"
     stroke-width="3"
     fill="none"
     id="path394" />
  <path
     d="m 2203.02,5271.02 c 0,-2.77 2.23,-5 5,-5 h 68.17 c 2.75,0 5,2.23 5,5 v 48.4 c 0,2.77 -2.25,5 -5,5 H 2208 c -2.77,0 -5,-2.23 -5,-5 z"
     fill="#ffffff"
     fill-opacity="0"
     id="path396" />
  <path
     d="m 2245.26,5308.83 -0.1,0.94 h -9.86 l -8.74,-18.36 c -0.6,0.07 -1.23,0.13 -1.7,0.13 -0.8,0 -1.4,-0.12 -2.2,-0.24 l -3.62,13.92 c -0.12,0.47 -0.17,0.87 -0.17,1.34 0,1.4 1.04,2.27 4.42,2.27 h 1.1 l -0.23,0.94 h -18.94 l 0.23,-0.94 h 0.94 c 4.42,0 5.6,-1.63 6.1,-3.6 l 7.24,-28.97 c 0.12,-0.47 0.3,-1 0.3,-1.46 0,-1.22 -1,-2.15 -4.5,-2.15 h -1.16 l 0.23,-0.93 h 15.8 c 9.33,0 12.6,3.84 12.6,8.8 0,4.83 -4.15,8.73 -10.38,9.96 l 6.7,13.34 c 1.1,2.27 2.62,4.72 5.94,5 m -18.35,-34.77 -3.72,15.15 c 0.76,0.17 1.34,0.23 1.86,0.23 7.75,0 11.13,-3.38 11.13,-8.28 0,-6.3 -3.6,-7.28 -7.28,-7.28 -0.83,0 -1.35,0.06 -2,0.18 m 46.77,36.65 -2.5,7.84 h -23.45 l 0.16,-0.66 h 0.7 c 3.1,0 4.08,-1.15 4.4,-2.55 l 4.87,-19.65 c 0.16,-0.66 0.3,-1.5 0.3,-1.86 0,-0.78 -0.6,-1.52 -3.14,-1.52 h -0.73 l 0.16,-0.66 h 13.47 l -0.16,0.66 h -0.74 c -3.1,0 -3.96,1.07 -4.33,2.6 l -5.03,19.8 c -0.16,0.63 -0.2,1.2 -0.2,1.3 0,0.9 1.15,0.98 1.65,0.98 h 5 c 4.2,0 6.32,-0.9 8.2,-4.74 0.3,-0.46 0.5,-0.95 0.7,-1.53 h 0.67"
     id="path398" />
  <path
     d="m 2183.7,5151.85 h 116.2 c 3.32,0 6,2.7 6,6 v 64.85 m -122.16,-70.85 h -1.54"
     stroke="#000000"
     stroke-width="3"
     fill="none"
     id="path400" />
  <path
     d="m 2304.4,5224.2 v -1.54 h 3 v 1.54 z"
     id="path402" />
  <path
     d="m 224.72,4780.45 c 0,-3.3 2.7,-6 6,-6 H 2529.2 c 3.3,0 6,2.7 6,6 v 848 c 0,3.32 -2.7,6 -6,6 H 230.7 c -3.3,0 -6,-2.68 -6,-6 z"
     stroke="#000000"
     stroke-width="3"
     fill-opacity="0"
     id="path404" />
  <path
     d="m 2140.34,6234.72 v 120 h -120 v -120 z"
     fill="none"
     id="path406" />
  <path
     d="m 2080.34,6234.72 v 54 m 36,0 h -72 m 36,12 v 54 m 36,-54 h -72"
     stroke="#000000"
     stroke-width="3"
     fill="#ffffff"
     id="path408" />
  <path
     d="m 2090.54,6459.93 c 0,5.53 -4.47,10 -10,10 -5.52,0 -10,-4.47 -10,-10 0,-5.52 4.48,-10 10,-10 5.53,0 10,4.48 10,10 z m -2.59,-328.08 c 0,5.52 -4.48,10 -10,10 -5.53,0 -10,-4.48 -10,-10 0,-5.52 4.47,-10 10,-10 5.52,0 10,4.48 10,10 z"
     stroke="#000000"
     stroke-opacity="0"
     stroke-width="3"
     id="path410" />
  <path
     d="m 2080.34,6233.22 v -44.9 c 0,-0.1 -0.1,-0.2 -0.2,-0.2 -0.1,0 -0.2,-0.08 -0.2,-0.2 v -44.9"
     stroke="#000000"
     stroke-width="3"
     fill="none"
     id="path412" />
  <path
     d="m 2078.84,6234.72 v -1.54 h 3 v 1.54 z m 2.61,-91.65 h -3 v -1.3 l 2.66,-0.43 0.35,-0.17 z"
     id="path414" />
  <path
     d="m 2004.1,6219.06 c 0,-2.77 2.24,-5 5,-5 h 53.85 c 2.76,0 5,2.23 5,5 v 49.56 c 0,2.76 -2.24,5 -5,5 h -53.84 c -2.76,0 -5,-2.24 -5,-5 z"
     fill="#ffffff"
     fill-opacity="0"
     id="path416" />
  <path
     d="m 2045.3,6215.2 -2.2,11.95 -1.08,-0.18 c -0.72,-6.4 -3.65,-9.74 -8.9,-9.74 -4.44,0 -8.62,2.27 -11.9,5.8 -4.32,4.6 -6.47,11.42 -6.47,18 0,8.37 3.83,12.25 10.46,12.25 4.92,0 8.5,-1.73 13.7,-7.1 l 1.08,0.88 c -5.38,6.34 -10.16,8.9 -16.32,8.9 -9.15,0 -15.6,-5.73 -15.6,-15.6 0,-8.42 4.6,-16.26 11.17,-20.92 3.83,-2.75 8.38,-4.37 13.1,-4.37 1.97,0 4.48,0.12 7,1.02 1.2,0.4 1.9,0.4 2.45,0.4 1.2,0 1.8,-0.35 2.27,-1.3 h 1.25 m 0.39,30.61 h 3.94 c 0.93,-3 1.65,-5.32 3.05,-7.3 1.26,-1.83 3,-3.26 5.57,-3.26 2.07,0 3.63,1.1 3.63,2.62 0,0.93 -0.8,1.82 -1.77,1.82 -0.76,0 -1.57,-0.64 -1.57,-1.65 0,-0.72 0.43,-0.93 0.43,-1.3 0,-0.35 -0.35,-0.56 -0.94,-0.56 -2.37,0 -3.94,2.96 -5.16,9.64 h 4.52 l -0.25,1.36 h -4.57 l -3.04,13.53 c -1.78,7.8 -4.6,11.95 -8.46,11.95 -1.9,0 -3.34,-1.1 -3.34,-2.57 0,-0.98 0.72,-1.78 1.6,-1.78 0.98,0 1.62,0.68 1.62,1.56 0,0.55 -0.4,0.77 -0.4,1.23 0,0.37 0.35,0.67 0.86,0.67 1.78,0 3.13,-2.3 4.1,-6.85 l 3.72,-17.76 h -3.85"
     id="path418" />
  <path
     d="m 2080.34,6356.22 v 46 c 0,0.06 0.04,0.1 0.1,0.1 0.06,0 0.1,0.05 0.1,0.1 v 46"
     stroke="#000000"
     stroke-width="3"
     fill="none"
     id="path420" />
  <path
     d="m 2081.84,6356.26 h -3 v -1.54 h 3 z m 0.2,93.87 -1.5,-0.2 -1.5,0.2 v -1.73 h 3 z"
     id="path422" />
  <path
     d="m 2156.98,6459.93 h -64.94"
     stroke="#000000"
     stroke-width="3"
     fill="none"
     id="path424" />
  <path
     d="m 2158.48,6461.43 h -1.54 v -3 h 1.54 z m -66.4,0 h -1.78 l 0.24,-1.5 -0.2,-1.5 h 1.74 z"
     id="path426" />
  <path
     d="m 2159.98,6451.93 h 16 v 16 h -16 z m 0,-328.08 h 16 v 16 h -16 z"
     stroke="#000000"
     stroke-width="3"
     id="path428" />
  <path
     d="m 2156.98,6131.85 h -67.53"
     stroke="#000000"
     stroke-width="3"
     fill="none"
     id="path430" />
  <path
     d="m 2158.48,6133.35 h -1.54 v -3 h 1.54 z m -68.98,0 h -1.8 l 0.25,-1.5 -0.2,-1.5 h 1.74 z"
     id="path432" />
  <path
     d="m 220,5760.45 c 0,-3.3 2.7,-6 6,-6 h 2298.47 c 3.3,0 6,2.7 6,6 v 848 c 0,3.32 -2.7,6 -6,6 H 226 c -3.3,0 -6,-2.68 -6,-6 z"
     stroke="#000000"
     stroke-width="3"
     fill-opacity="0"
     id="path434" />
  <path
     d="m 1829.97,6155.73 h 120 v 80 h -120 z"
     fill="none"
     id="path436" />
  <path
     d="m 1829.97,6195.73 h 36 m 0,-40 v 80 l 36,-40 z m 36,0 v 80 m 0,-40 h 48 z"
     stroke="#000000"
     stroke-width="3"
     fill="#ffffff"
     id="path438" />
  <path
     d="m 1759.1,6353.67 v -120 h 80 v 120 z"
     fill="none"
     id="path440" />
  <path
     d="m 1799.1,6353.67 v -36 m -40,0 h 80 l -40,-36 z m 0,-36 h 80 m -40,0 v -48 z"
     stroke="#000000"
     stroke-width="3"
     fill="#ffffff"
     id="path442" />
  <path
     d="m 1809.1,6195.38 c 0,5.52 -4.47,10 -10,10 -5.52,0 -10,-4.48 -10,-10 0,-5.52 4.48,-10 10,-10 5.53,0 10,4.48 10,10 z"
     stroke="#000000"
     stroke-opacity="0"
     stroke-width="3"
     id="path444" />
  <path
     d="m 1842.27,6307.54 c 0,-2.76 2.24,-5 5,-5 h 57.2 c 2.75,0 5,2.24 5,5 v 37.5 c 0,2.76 -2.25,5 -5,5 h -57.2 c -2.76,0 -5,-2.24 -5,-5 z"
     fill="#ffffff"
     fill-opacity="0"
     id="path446" />
  <path
     d="m 1850.13,6303.5 h 15.72 c 9.93,0 16.57,5.34 16.57,15.28 0,7.03 -3.52,12.77 -9.08,17.08 -4.14,3.24 -9.87,4.7 -16.52,4.7 h -14.58 v -0.9 c 3.18,-0.56 3.74,-0.96 4.65,-4.3 l 6.92,-25.27 c 0.4,-1.43 0.62,-2.5 0.62,-3.36 0,-1.53 -0.85,-2.2 -4.3,-2.32 v -0.9 m 10.15,3.9 -6.7,23.96 c -0.98,3.52 -1.26,4.65 -1.26,5.4 0,1.46 1.25,2.1 3.86,2.1 5.73,0 10.16,-1.7 13.68,-5.12 4.03,-3.92 6.24,-10.6 6.24,-16.35 0,-4.53 -1.64,-8.1 -4.42,-10.2 -1.76,-1.3 -4.15,-2 -7.44,-2 -2.16,0 -3.4,0.24 -3.97,2.22 m 39.21,41.7 h -11.08 v -0.6 c 2.97,-0.16 3.82,-1 3.82,-3.2 v -18.03 c 0,-1.38 -0.36,-1.98 -1.2,-1.98 -0.4,0 -1.1,0.2 -1.8,0.48 l -1.1,0.4 v -0.56 l 7.2,-3.65 0.35,0.1 v 23.97 c 0,1.73 0.8,2.45 3.8,2.45 v 0.6"
     id="path448" />
  <path
     d="m 1810.6,6195.38 h 8.93 v 0.35 h 8.94"
     stroke="#000000"
     stroke-width="3"
     fill="none"
     id="path450" />
  <path
     d="m 1810.64,6196.88 h -1.78 l 0.24,-1.5 -0.2,-1.5 h 1.74 z m 19.33,0.35 h -1.54 v -3 h 1.54 z"
     id="path452" />
  <path
     d="m 1799.1,6232.17 v -25.3"
     stroke="#000000"
     stroke-width="3"
     fill="none"
     id="path454" />
  <path
     d="m 1797.6,6233.67 v -1.54 h 3 v 1.54 z m 3,-26.75 h -3 v -1.78 l 1.5,0.24 1.5,-0.24 z"
     id="path456" />
  <path
     d="m 1810.1,6418.15 c 0,5.52 -4.47,10 -10,10 -5.52,0 -10,-4.48 -10,-10 0,-5.53 4.48,-10 10,-10 5.53,0 10,4.47 10,10 z"
     stroke="#000000"
     stroke-opacity="0"
     stroke-width="3"
     id="path458" />
  <path
     d="m 1799.1,6355.17 v 51.6"
     stroke="#000000"
     stroke-width="3"
     fill="none"
     id="path460" />
  <path
     d="m 1800.6,6355.2 h -3 v -1.53 h 3 z m 0,53 -0.5,-0.05 -2.5,0.33 v -1.74 h 3 z"
     id="path462" />
  <path
     d="m 1860.06,6107.7 c 0,-2.75 2.24,-5 5,-5 h 60.82 c 2.76,0 5,2.25 5,5 v 40.06 c 0,2.76 -2.24,5 -5,5 h -60.82 c -2.76,0 -5,-2.24 -5,-5 z"
     fill="#ffffff"
     fill-opacity="0"
     id="path464" />
  <path
     d="m 1868.35,6103.73 h 16.56 c 10.48,0 17.48,5.62 17.48,16.1 0,7.4 -3.7,13.44 -9.57,18 -4.36,3.4 -10.4,4.96 -17.4,4.96 h -15.37 v -0.97 c 3.35,-0.6 3.95,-1.02 4.9,-4.55 l 7.3,-26.62 c 0.42,-1.5 0.66,-2.63 0.66,-3.53 0,-1.6 -0.9,-2.33 -4.55,-2.45 v -0.95 m 10.7,4.12 -7.06,25.25 c -1.02,3.7 -1.32,4.9 -1.32,5.68 0,1.55 1.3,2.2 4.07,2.2 6.04,0 10.7,-1.78 14.4,-5.37 4.26,-4.12 6.6,-11.18 6.6,-17.22 0,-4.78 -1.74,-8.55 -4.67,-10.77 -1.86,-1.36 -4.37,-2.08 -7.84,-2.08 -2.27,0 -3.6,0.24 -4.2,2.33 m 44.7,38.14 -2.28,5.8 h -16.54 v -0.5 l 7.53,-8 c 3.98,-4.2 5.5,-7.4 5.5,-11 0,-3.85 -2.3,-5.97 -5.88,-5.97 -3.05,0 -4.53,1.36 -6.22,5.5 l -0.9,-0.2 c 0.9,-4.96 3.6,-8.43 8.8,-8.43 4.8,0 7.84,3.26 7.84,7.45 0,3.34 -1.66,6.5 -5.43,10.5 l -6.98,7.43 h 9.9 c 1.77,0 2.66,-0.47 4.05,-2.83"
     id="path466" />
  <path
     d="m 2068.54,6459.94 h -128.47 v -41.8 H 1811.6 m 256.9,41.8 h 1.54"
     stroke="#000000"
     stroke-width="3"
     fill="none"
     id="path468" />
  <path
     d="m 1811.64,6419.65 h -1.78 l 0.24,-1.5 -0.2,-1.5 h 1.74 z"
     id="path470" />
  <path
     d="m 1951.47,6195.73 h 57.24 v -63.88 h 57.25"
     stroke="#000000"
     stroke-width="3"
     fill="none"
     id="path472" />
  <path
     d="m 1951.5,6197.23 h -1.53 v -3 h 1.53 z"
     id="path474" />
  <path
     d="m 2065.9,6131.85 h 1.55 m -278.85,286.3 h -53.82 c -3.3,0 -6,2.68 -6,6 v 68.32 c 0,3.3 -2.68,6 -6,6 h -53.8"
     stroke="#000000"
     stroke-width="3"
     fill="none"
     id="path476" />
  <path
     d="m 1790.1,6418.15 0.24,1.5 h -1.78 v -3 h 1.74 z"
     id="path478" />
  <path
     d="m 1669,6498.47 h -1.53 m 120.13,-303.09 h -53.32 c -3.3,0 -6,-2.7 -6,-6 v -53.1 c 0,-3.3 -2.68,-6 -6,-6 h -53.3"
     stroke="#000000"
     stroke-width="3"
     fill="none"
     id="path480" />
  <path
     d="m 1789.1,6195.38 0.24,1.5 h -1.78 v -3 h 1.74 z"
     id="path482" />
  <path
     d="m 1669,6130.28 h -1.53"
     stroke="#000000"
     stroke-width="3"
     fill="none"
     id="path484" />
  <path
     d="m 3084.1,4577.2 h 16 v 16 h -16 z m -0.03,643.75 h 16 v 16 h -16 z"
     stroke="#000000"
     stroke-width="3"
     id="path486" />
  <path
     d="m 2967.82,4964.35 v 258.6 c 0,3.3 2.7,6 6,6 h 107.25"
     stroke="#000000"
     stroke-width="3"
     fill="none"
     id="path488" />
  <path
     d="m 2969.32,4964.4 h -3 v -1.55 h 3 z m 113.25,266.05 h -1.54 v -3 h 1.54 z"
     id="path490" />
  <path
     d="m 2800,4460.45 c 0,-3.3 2.7,-6 6,-6 h 2298.47 c 3.3,0 6,2.7 6,6 v 848 c 0,3.32 -2.7,6 -6,6 H 2806 c -3.3,0 -6,-2.68 -6,-6 z"
     stroke="#000000"
     stroke-width="3"
     fill-opacity="0"
     id="path492" />
  <path
     d="m 3018,4877.14 c 0,-2.76 2.24,-5 5,-5 h 49.07 c 2.76,0 5,2.24 5,5 v 55.03 c 0,2.76 -2.24,5 -5,5 H 3023 c -2.76,0 -5,-2.24 -5,-5 z"
     fill="#ffffff"
     fill-opacity="0"
     id="path494" />
  <path
     d="m 3061.85,4877.78 -0.23,0.92 c -3.75,0.24 -6.12,2.5 -7.62,4.45 l -25.44,33.23 h -1.4 v -32.94 c 0,-3.35 -2.18,-4.74 -5.7,-4.74 l 0.23,-0.92 h 16.95 l -0.23,0.92 h -1.1 c -3.74,0 -4.03,2.14 -4.03,4.04 v 22.56 l 0.22,0.06 16.15,-21.12 c 1.1,-1.38 2.2,-3.05 2.2,-4.27 0,-0.86 -0.8,-1.27 -3,-1.27 h -1.16 l 0.24,-0.92 h 13.9 m 9.4,29.52 -0.53,1.83 h -3.3 c 0.53,0.62 0.7,1.15 0.7,2.04 0,3.06 -2.17,5.6 -5.76,6.04 -2.4,0.34 -3.6,1.36 -3.6,2.38 0,2.57 9.5,0.93 9.5,6.03 0,2.9 -2.68,6.17 -8.76,6.17 -5.46,0 -7.5,-2.32 -7.5,-4.7 0,-2.36 2.24,-3.58 4.77,-4.4 -0.7,-0.44 -0.98,-1.22 -0.98,-1.9 0,-1.56 1.5,-3.56 3.47,-3.56 v -0.15 c -2.73,-0.62 -3.84,-2.53 -3.84,-4.45 0,-3.22 2.78,-6.44 7.1,-6.44 1.7,0 2.98,0.53 3.6,1.14 h 5.13 m -6.36,2.6 c 0,-1.5 -0.4,-2.52 -2.2,-2.52 -2.2,0 -4,2.9 -4,5.67 0,1.88 0.5,3.3 2.28,3.3 2.9,0 3.92,-4.16 3.92,-6.44 m 0.53,17.06 c 0,-3.18 -5.4,-2.98 -7.83,-3.88 -0.33,0.2 -0.74,0.4 -1.06,0.66 -1.06,0.77 -1.95,1.83 -1.95,2.93 0,1.92 1.8,3.96 5.67,3.96 3.7,0 5.18,-1.88 5.18,-3.67"
     id="path496" />
  <path
     d="m 2852.18,4872.2 c 0,-2.77 2.24,-5 5,-5 h 45.64 c 2.76,0 5,2.23 5,5 v 57.52 c 0,2.76 -2.24,5 -5,5 h -45.64 c -2.76,0 -5,-2.24 -5,-5 z"
     fill="#ffffff"
     fill-opacity="0"
     id="path498" />
  <path
     d="m 2883.93,4873.05 -0.24,0.96 h -1.15 c -4.55,0 -5.8,1.56 -6.35,3.72 l -7.37,29.78 c -0.12,0.48 -0.18,1.14 -0.18,1.73 0,1.26 1.14,1.98 4.68,1.98 h 1 l -0.23,0.97 h -19.65 l 0.24,-0.96 h 1.13 c 4.56,0 5.8,-1.67 6.3,-3.7 l 7.36,-29.78 c 0.1,-0.48 0.23,-1.02 0.23,-1.44 0,-1.3 -1.02,-2.27 -4.6,-2.27 h -1.1 l 0.25,-0.95 h 19.65 m 17.88,30.61 -0.55,1.9 h -3.43 c 0.55,0.64 0.72,1.2 0.72,2.12 0,3.18 -2.25,5.8 -5.98,6.27 -2.5,0.33 -3.72,1.4 -3.72,2.45 0,2.67 9.87,0.97 9.87,6.27 0,3 -2.8,6.4 -9.12,6.4 -5.68,0 -7.8,-2.42 -7.8,-4.88 0,-2.45 2.33,-3.73 4.96,-4.57 -0.72,-0.47 -1.02,-1.27 -1.02,-2 0,-1.6 1.57,-3.68 3.6,-3.68 v -0.18 c -2.83,-0.63 -3.98,-2.62 -3.98,-4.6 0,-3.36 2.88,-6.7 7.37,-6.7 1.8,0 3.1,0.54 3.74,1.18 h 5.34 m -6.6,2.7 c 0,-1.56 -0.43,-2.62 -2.3,-2.62 -2.28,0 -4.15,3 -4.15,5.9 0,1.94 0.5,3.42 2.37,3.42 3,0 4.07,-4.32 4.07,-6.7 m 0.55,17.7 c 0,-3.3 -5.6,-3.08 -8.13,-4 -0.35,0.2 -0.77,0.4 -1.1,0.67 -1.1,0.8 -2.05,1.9 -2.05,3.05 0,2 1.87,4.1 5.9,4.1 3.85,0 5.37,-1.94 5.37,-3.8"
     id="path500" />
  <path
     d="m 3015.82,4902.85 c 0,26.5 -21.5,48 -48,48 -26.5,0 -48,-21.5 -48,-48 0,-26.5 21.5,-48 48,-48 26.5,0 48,21.5 48,48 z m -48,24 v -43.2 h 2.4 -4.8 l 2.4,-4.8 2.4,4.8 h -2.4 m 0,-28.8 v -12 m 0,108 v 12"
     stroke="#000000"
     stroke-width="3"
     fill="#ffffff"
     id="path502" />
  <path
     d="m 3016.36,4822.33 c 0,-2.77 2.24,-5 5,-5 h 37.85 c 2.77,0 5,2.23 5,5 v 33.4 c 0,2.77 -2.23,5 -5,5 h -37.84 c -2.76,0 -5,-2.23 -5,-5 z"
     fill="#ffffff"
     fill-opacity="0"
     id="path504" />
  <path
     d="m 3060.75,4841.34 h -18.2 v 18.2 h -4.62 v -18.2 h -18.22 v -4.6 h 18.23 v -18.23 h 4.6 v 18.23 h 18.22 v 4.6"
     id="path506" />
  <path
     d="m 3007.54,4982.33 c 0,-2.77 2.24,-5 5,-5 h 37.84 c 2.77,0 5,2.23 5,5 v 12.26 c 0,2.76 -2.23,5 -5,5 h -37.84 c -2.76,0 -5,-2.24 -5,-5 z"
     fill="#ffffff"
     fill-opacity="0"
     id="path508" />
  <path
     d="M 3050.88,4983.12 H 3012 v -4.6 h 38.88 v 4.6"
     id="path510" />
  <path
     d="M 2967.82,4841.35 V 4591.2 c 0,-3.32 2.7,-6 6,-6 h 107.27"
     stroke="#000000"
     stroke-width="3"
     fill="none"
     id="path512" />
  <path
     d="m 2966.32,4842.85 v -1.54 h 3 v 1.55 z M 3082.6,4586.7 h -1.55 v -3 h 1.54 z"
     id="path514" />
  <path
     d="m 4580.34,2794.72 v 120 h -120 v -120 z"
     fill="none"
     id="path516" />
  <path
     d="m 4520.34,2794.72 v 54 m 36,0 h -72 m 36,12 v 54 m 36,-54 h -72"
     stroke="#000000"
     stroke-width="3"
     fill="#ffffff"
     id="path518" />
  <path
     d="m 4298.63,2741.06 c 0,5.53 -4.47,10 -10,10 -5.52,0 -10,-4.47 -10,-10 0,-5.52 4.48,-10 10,-10 5.53,0 10,4.48 10,10 z m 231.91,278.87 c 0,5.53 -4.47,10 -10,10 -5.52,0 -10,-4.47 -10,-10 0,-5.52 4.48,-10 10,-10 5.53,0 10,4.48 10,10 z m -2.59,-328.08 c 0,5.52 -4.48,10 -10,10 -5.53,0 -10,-4.48 -10,-10 0,-5.52 4.47,-10 10,-10 5.52,0 10,4.48 10,10 z"
     stroke="#000000"
     stroke-opacity="0"
     stroke-width="3"
     id="path520" />
  <path
     d="m 4520.34,2793.22 v -44.9 c 0,-0.1 -0.1,-0.2 -0.2,-0.2 -0.1,0 -0.2,-0.08 -0.2,-0.2 v -44.9"
     stroke="#000000"
     stroke-width="3"
     fill="none"
     id="path522" />
  <path
     d="m 4518.84,2794.72 v -1.54 h 3 v 1.54 z m 2.61,-91.65 h -3 v -1.3 l 2.66,-0.43 0.35,-0.17 z"
     id="path524" />
  <path
     d="m 4444.1,2779.06 c 0,-2.77 2.24,-5 5,-5 h 53.85 c 2.76,0 5,2.23 5,5 v 49.56 c 0,2.76 -2.24,5 -5,5 h -53.84 c -2.76,0 -5,-2.24 -5,-5 z"
     fill="#ffffff"
     fill-opacity="0"
     id="path526" />
  <path
     d="m 4485.3,2775.2 -2.2,11.95 -1.08,-0.18 c -0.72,-6.4 -3.65,-9.74 -8.9,-9.74 -4.44,0 -8.62,2.27 -11.9,5.8 -4.32,4.6 -6.47,11.42 -6.47,18 0,8.37 3.83,12.25 10.46,12.25 4.92,0 8.5,-1.73 13.7,-7.1 l 1.08,0.88 c -5.38,6.34 -10.16,8.9 -16.32,8.9 -9.15,0 -15.6,-5.73 -15.6,-15.6 0,-8.42 4.6,-16.26 11.17,-20.92 3.83,-2.75 8.38,-4.37 13.1,-4.37 1.97,0 4.48,0.12 7,1.02 1.2,0.4 1.9,0.4 2.45,0.4 1.2,0 1.8,-0.35 2.27,-1.3 h 1.25 m 0.39,30.61 h 3.94 c 0.93,-3 1.65,-5.32 3.05,-7.3 1.26,-1.83 3,-3.26 5.57,-3.26 2.07,0 3.63,1.1 3.63,2.62 0,0.93 -0.8,1.82 -1.77,1.82 -0.76,0 -1.57,-0.64 -1.57,-1.65 0,-0.72 0.43,-0.93 0.43,-1.3 0,-0.35 -0.35,-0.56 -0.94,-0.56 -2.37,0 -3.94,2.96 -5.16,9.64 h 4.52 l -0.25,1.36 h -4.57 l -3.04,13.53 c -1.78,7.8 -4.6,11.95 -8.46,11.95 -1.9,0 -3.34,-1.1 -3.34,-2.57 0,-0.98 0.72,-1.78 1.6,-1.78 0.98,0 1.62,0.68 1.62,1.56 0,0.55 -0.4,0.77 -0.4,1.23 0,0.37 0.35,0.67 0.86,0.67 1.78,0 3.13,-2.3 4.1,-6.85 l 3.72,-17.76 h -3.85"
     id="path528" />
  <path
     d="m 4284.02,2741.77 c 1.95,-1.95 5.1,-1.95 7.07,0 l 100.04,100.05 c 1.95,1.95 1.95,5.12 0,7.07 l -100.05,100.04 c -1.97,1.95 -5.13,1.95 -7.08,0 l -100.05,-100.05 c -1.96,-1.96 -1.96,-5.13 0,-7.08 z"
     stroke="#000000"
     stroke-width="3"
     fill-opacity="0"
     id="path530" />
  <path
     d="m 4329.5,2722.85 84.85,84.85 -56.57,56.57 -84.86,-84.85 z"
     fill="none"
     id="path532" />
  <path
     d="m 4301.2,2751.14 25.46,25.45 m 28.3,-28.3 -56.58,56.58 53.74,-2.83 2.83,-53.74 z m 25.44,25.46 -56.56,56.57 m 28.28,-28.28 33.94,33.94 z"
     stroke="#000000"
     stroke-width="3"
     fill="#ffffff"
     id="path534" />
  <path
     d="m 4169.2,2800.7 84.87,-84.85 56.56,56.57 -84.85,84.85 z"
     fill="none"
     id="path536" />
  <path
     d="m 4197.5,2829 25.45,-25.47 m -28.28,-28.28 56.57,56.57 -2.83,-53.74 -53.73,-2.83 z m 25.46,-25.46 56.56,56.56 m -28.3,-28.28 33.95,-33.94 z"
     stroke="#000000"
     stroke-width="3"
     fill="#ffffff"
     id="path538" />
  <path
     d="m 4218.3,2826.6 84.84,84.84 -56.57,56.57 -84.85,-84.84 z"
     fill="none"
     id="path540" />
  <path
     d="m 4190,2854.87 25.46,25.46 m 28.28,-28.3 -56.56,56.58 53.74,-2.82 2.82,-53.74 z m 25.46,25.47 -56.57,56.57 m 28.3,-28.3 33.93,33.95 z"
     stroke="#000000"
     stroke-width="3"
     fill="#ffffff"
     id="path542" />
  <path
     d="m 4272.92,2909.7 84.86,-84.85 56.57,56.57 -84.86,84.85 z"
     fill="none"
     id="path544" />
  <path
     d="m 4301.2,2938 25.46,-25.47 m -28.28,-28.28 56.57,56.57 -2.83,-53.74 z m 25.46,-25.46 56.56,56.56 m -28.28,-28.28 33.94,-33.94 z"
     stroke="#000000"
     stroke-width="3"
     fill="#ffffff"
     id="path546" />
  <path
     d="m 4298.33,2949.4 c 0,5.53 -4.47,10 -10,10 -5.52,0 -10,-4.47 -10,-10 0,-5.52 4.48,-10 10,-10 5.53,0 10,4.48 10,10 z"
     stroke="#000000"
     stroke-opacity="0"
     stroke-width="3"
     id="path548" />
  <path
     d="m 4520.34,2916.22 v 46 c 0,0.06 0.04,0.1 0.1,0.1 0.06,0 0.1,0.05 0.1,0.1 v 46"
     stroke="#000000"
     stroke-width="3"
     fill="none"
     id="path550" />
  <path
     d="m 4521.84,2916.26 h -3 v -1.54 h 3 z m 0.2,93.87 -1.5,-0.2 -1.5,0.2 v -1.73 h 3 z"
     id="path552" />
  <path
     d="m 4401.35,2844.2 c 0,5.73 -4.48,10.38 -10,10.38 -5.53,0 -10,-4.65 -10,-10.38 0,-5.73 4.47,-10.38 10,-10.38 5.52,0 10,4.65 10,10.38 z"
     stroke="#000000"
     stroke-opacity="0"
     stroke-width="3"
     id="path554" />
  <path
     d="m 4506.45,2691.85 h -83.2 v 152.35 h -20.4"
     stroke="#000000"
     stroke-width="3"
     fill="none"
     id="path556" />
  <path
     d="m 4507.95,2691.85 0.24,1.5 h -1.8 v -3 h 1.74 z m -105.07,153.85 h -1.73 l 0.2,-1.5 -0.2,-1.5 h 1.73 z"
     id="path558" />
  <path
     d="m 4192.43,2843.82 c 0,5.52 -4.48,10 -10,10 -5.52,0 -10,-4.48 -10,-10 0,-5.52 4.48,-10 10,-10 5.52,0 10,4.48 10,10 z"
     stroke="#000000"
     stroke-opacity="0"
     stroke-width="3"
     id="path560" />
  <path
     d="m 4509.04,3019.93 h -348.7 v -176.1 h 10.6"
     stroke="#000000"
     stroke-width="3"
     fill="none"
     id="path562" />
  <path
     d="m 4510.54,3019.93 0.25,1.5 h -1.8 v -3 h 1.74 z m -338.11,-176.11 0.24,1.5 h -1.78 v -3 h 1.73 z"
     id="path564" />
  <path
     d="m 4596.98,3019.93 h -64.92"
     stroke="#000000"
     stroke-width="3"
     fill="none"
     id="path566" />
  <path
     d="m 4598.48,3021.43 h -1.54 v -3 h 1.54 z m -66.4,0 h -1.78 l 0.24,-1.5 -0.2,-1.5 h 1.74 z"
     id="path568" />
  <path
     d="m 4176.74,2698.92 c 0,-2.76 2.23,-5 5,-5 h 59.44 c 2.77,0 5,2.24 5,5 v 45.94 c 0,2.76 -2.23,5 -5,5 h -59.44 c -2.77,0 -5,-2.24 -5,-5 z"
     fill="#ffffff"
     fill-opacity="0"
     id="path570" />
  <path
     d="m 4187.56,2699.38 h 15.74 c 10.5,0 16.13,5.74 16.13,15.34 0,11.78 -9.1,21.1 -23.5,21.1 h -17.07 l 0.22,-0.9 h 1 c 4.13,0 5.42,-1.56 5.86,-3.45 l 6.8,-27.74 c 0.12,-0.45 0.24,-0.95 0.24,-1.34 0,-1.24 -1,-2.08 -4.3,-2.08 h -1.4 m 12.06,1.34 -6.8,28.13 c -0.3,1.05 -0.3,1.33 -0.3,1.5 0,2.3 3.36,2.4 5.3,2.4 10.73,0 15.14,-10.27 15.14,-18.14 0,-6.42 -1.85,-14.06 -10.05,-14.06 -1.12,0 -2.4,0.05 -3.3,0.16 m 37.02,42.58 h -10.9 v -0.6 c 2.93,-0.15 3.76,-0.98 3.76,-3.15 v -17.7 c 0,-1.35 -0.34,-1.94 -1.17,-1.94 -0.4,0 -1.07,0.2 -1.78,0.47 l -1.06,0.4 v -0.56 l 7.05,-3.6 0.36,0.13 v 23.55 c 0,1.7 0.8,2.4 3.75,2.4 v 0.6"
     id="path572" />
  <path
     d="m 4192.43,2944.4 c 0,-2.76 2.24,-5 5,-5 h 59.45 c 2.76,0 5,2.24 5,5 v 45.95 c 0,2.76 -2.24,5 -5,5 h -59.45 c -2.76,0 -5,-2.24 -5,-5 z"
     fill="#ffffff"
     fill-opacity="0"
     id="path574" />
  <path
     d="M 4203.26,2944.86 H 4219 c 10.5,0 16.12,5.75 16.12,15.35 0,11.8 -9.1,21.1 -23.5,21.1 h -17.07 l 0.22,-0.9 h 1 c 4.14,0 5.42,-1.55 5.87,-3.45 l 6.8,-27.73 c 0.12,-0.45 0.23,-0.95 0.23,-1.34 0,-1.23 -1,-2.07 -4.3,-2.07 h -1.4 m 12.06,1.35 -6.8,28.13 c -0.28,1.06 -0.28,1.34 -0.28,1.5 0,2.3 3.34,2.4 5.3,2.4 10.7,0 15.12,-10.26 15.12,-18.13 0,-6.42 -1.84,-14.07 -10.04,-14.07 -1.12,0 -2.4,0.06 -3.3,0.17 m 40.17,37.13 -2.12,5.4 h -15.43 v -0.46 l 7.02,-7.46 c 3.7,-3.9 5.13,-6.9 5.13,-10.26 0,-3.6 -2.13,-5.56 -5.48,-5.56 -2.84,0 -4.23,1.26 -5.8,5.13 l -0.83,-0.2 c 0.82,-4.63 3.34,-7.86 8.2,-7.86 4.45,0 7.3,3.04 7.3,6.94 0,3.12 -1.54,6.08 -5.06,9.8 l -6.5,6.93 h 9.23 c 1.65,0 2.48,-0.42 3.78,-2.63"
     id="path576" />
  <path
     d="m 4331.9,2698.92 c 0,-2.76 2.24,-5 5,-5 h 59.45 c 2.76,0 5,2.24 5,5 v 45.94 c 0,2.76 -2.24,5 -5,5 h -59.45 c -2.76,0 -5,-2.24 -5,-5 z"
     fill="#ffffff"
     fill-opacity="0"
     id="path578" />
  <path
     d="m 4342.72,2699.38 h 15.74 c 10.5,0 16.13,5.74 16.13,15.34 0,11.78 -9.1,21.1 -23.5,21.1 h -17.08 l 0.22,-0.9 h 1 c 4.14,0 5.42,-1.56 5.87,-3.45 l 6.8,-27.74 c 0.13,-0.45 0.24,-0.95 0.24,-1.34 0,-1.24 -1,-2.08 -4.3,-2.08 h -1.4 m 12.06,1.34 -6.8,28.13 c -0.3,1.05 -0.3,1.33 -0.3,1.5 0,2.3 3.36,2.4 5.3,2.4 10.73,0 15.14,-10.27 15.14,-18.14 0,-6.42 -1.84,-14.06 -10.05,-14.06 -1.12,0 -2.4,0.05 -3.3,0.16 m 23.89,22.46 -0.63,-0.16 c 1.14,-3.75 3.63,-6.4 7.73,-6.4 3.67,0 6.15,2.18 6.15,5.42 0,1.9 -1.02,3.86 -3.66,5.44 1.73,0.75 2.44,1.22 3.27,2.1 1.1,1.22 1.74,3.03 1.74,5.08 0,2.1 -0.67,4.03 -1.82,5.53 -1.9,2.53 -5.64,3.68 -9.15,3.68 -2.87,0 -4.4,-0.83 -4.4,-2.25 0,-0.83 0.7,-1.42 1.6,-1.42 0.68,0 1.3,0.24 2.4,1.03 1.47,1.03 2.3,1.22 3.4,1.22 2.93,0 5.14,-2.68 5.14,-6.03 0,-3 -1.4,-4.93 -4.1,-5.72 -0.88,-0.28 -1.78,-0.4 -4.03,-0.4 v -0.55 c 1.5,-0.5 2.53,-0.95 3.32,-1.42 1.93,-1.1 3.2,-2.88 3.2,-5.3 0,-2.67 -1.66,-4 -4.26,-4 -2.45,0 -4.27,1.25 -5.88,4.17"
     id="path580" />
  <path
     d="m 4344.9,2944.4 c 0,-2.76 2.24,-5 5,-5 h 59.45 c 2.76,0 5,2.24 5,5 v 45.95 c 0,2.76 -2.24,5 -5,5 h -59.45 c -2.76,0 -5,-2.24 -5,-5 z"
     fill="#ffffff"
     fill-opacity="0"
     id="path582" />
  <path
     d="m 4355.72,2944.86 h 15.74 c 10.5,0 16.13,5.75 16.13,15.35 0,11.8 -9.1,21.1 -23.5,21.1 h -17.08 l 0.22,-0.9 h 1 c 4.14,0 5.42,-1.55 5.87,-3.45 l 6.8,-27.73 c 0.13,-0.45 0.24,-0.95 0.24,-1.34 0,-1.23 -1,-2.07 -4.3,-2.07 h -1.4 m 12.06,1.35 -6.8,28.13 c -0.3,1.06 -0.3,1.34 -0.3,1.5 0,2.3 3.36,2.4 5.3,2.4 10.73,0 15.14,-10.26 15.14,-18.13 0,-6.42 -1.84,-14.07 -10.05,-14.07 -1.12,0 -2.4,0.06 -3.3,0.17 m 40.14,35.95 h -4.06 v 6.6 h -3.08 v -6.6 h -11.06 v -2.52 l 12.4,-17.56 h 1.73 v 17.56 h 4.06 v 2.52 m -7.14,-2.52 v -13.54 l -9.48,13.54 h 9.47"
     id="path584" />
  <path
     d="m 4288.63,2729.56 v -33.28 c 0,-3.3 -2.68,-6 -6,-6 h -173.16"
     stroke="#000000"
     stroke-width="3"
     fill="none"
     id="path586" />
  <path
     d="m 4290.13,2731.26 -1.5,-0.2 -1.5,0.2 v -1.74 h 3 z"
     id="path588" />
  <path
     d="m 4109.5,2690.28 h -1.53 m 180.36,270.62 v 91.57 c 0,3.3 -2.68,6 -6,6 h -172.86"
     stroke="#000000"
     stroke-width="3"
     fill="none"
     id="path590" />
  <path
     d="m 4289.83,2960.94 h -3 v -1.78 l 1.5,0.24 1.5,-0.24 z"
     id="path592" />
  <path
     d="m 4109.5,3058.47 h -1.53"
     stroke="#000000"
     stroke-width="3"
     fill="none"
     id="path594" />
  <path
     d="m 4599.98,3011.93 h 16 v 16 h -16 z m 0,-328.08 h 16 v 16 h -16 z"
     stroke="#000000"
     stroke-width="3"
     id="path596" />
  <path
     d="m 4596.98,2691.85 h -67.53"
     stroke="#000000"
     stroke-width="3"
     fill="none"
     id="path598" />
  <path
     d="m 4598.48,2693.35 h -1.54 v -3 h 1.54 z m -68.98,0 h -1.8 l 0.25,-1.5 -0.2,-1.5 h 1.74 z"
     id="path600" />
  <path
     d="m 2660,2320.45 c 0,-3.3 2.7,-6 6,-6 h 2298.47 c 3.3,0 6,2.7 6,6 v 848 c 0,3.32 -2.7,6 -6,6 H 2666 c -3.3,0 -6,-2.68 -6,-6 z"
     stroke="#000000"
     stroke-width="3"
     fill-opacity="0"
     id="path602" />
  <path
     d="m 4656.98,1425.45 c 0,-2.76 2.24,-5 5,-5 h 57.88 c 2.76,0 5,2.24 5,5 v 47.84 c 0,2.75 -2.24,5 -5,5 h -57.88 c -2.76,0 -5,-2.25 -5,-5 z"
     fill="#ffffff"
     fill-opacity="0"
     id="path604" />
  <path
     d="m 4700.83,1426.1 -0.23,0.92 c -3.75,0.23 -6.12,2.48 -7.62,4.44 l -25.44,33.23 h -1.4 v -32.95 c 0,-3.35 -2.18,-4.73 -5.7,-4.73 l 0.23,-0.92 h 16.96 l -0.23,0.92 h -1.1 c -3.74,0 -4.03,2.13 -4.03,4.04 v 22.56 l 0.23,0.05 16.15,-21.1 c 1.1,-1.4 2.2,-3.07 2.2,-4.28 0,-0.88 -0.8,-1.28 -3,-1.28 h -1.16 l 0.22,-0.92 h 13.9 m 16.59,38.62 -2.5,7.76 h -23.2 l 0.15,-0.65 h 0.7 c 3.06,0 4.04,-1.14 4.36,-2.52 l 4.83,-19.46 c 0.16,-0.65 0.28,-1.47 0.28,-1.83 0,-0.8 -0.56,-1.52 -3.1,-1.52 h -0.72 l 0.16,-0.66 h 13.34 l -0.17,0.66 h -0.72 c -3.06,0 -3.92,1.06 -4.28,2.57 l -4.98,19.62 c -0.16,0.6 -0.2,1.18 -0.2,1.26 0,0.9 1.14,0.98 1.63,0.98 h 4.98 c 4.16,0 6.24,-0.9 8.1,-4.68 0.3,-0.45 0.5,-0.94 0.7,-1.5 h 0.66"
     id="path606" />
  <path
     d="m 4675.98,1367.77 c 0,-2.76 2.24,-5 5,-5 h 37.84 c 2.77,0 5,2.24 5,5 v 33.42 c 0,2.75 -2.23,5 -5,5 h -37.84 c -2.76,0 -5,-2.25 -5,-5 z"
     fill="#ffffff"
     fill-opacity="0"
     id="path608" />
  <path
     d="m 4720.37,1386.78 h -18.22 V 1405 h -4.6 v -18.22 h -18.22 v -4.6 h 18.22 v -18.22 h 4.6 v 18.22 h 18.22 v 4.6"
     id="path610" />
  <path
     d="m 4674.47,1513.47 c 0,-2.76 2.24,-5 5,-5 h 37.84 c 2.77,0 5,2.24 5,5 v 12.27 c 0,2.76 -2.23,5 -5,5 h -37.83 c -2.76,0 -5,-2.24 -5,-5 z"
     fill="#ffffff"
     fill-opacity="0"
     id="path612" />
  <path
     d="m 4717.8,1514.26 h -38.87 v -4.6 h 38.88 v 4.6"
     id="path614" />
  <path
     d="m 4834.7,1429.64 c 0,-2.76 2.23,-5 5,-5 h 54.8 c 2.75,0 5,2.24 5,5 v 50.06 c 0,2.76 -2.25,5 -5,5 h -54.8 c -2.77,0 -5,-2.24 -5,-5 z"
     fill="#ffffff"
     fill-opacity="0"
     id="path616" />
  <path
     d="m 4866.45,1430.5 -0.24,0.96 h -1.13 c -4.56,0 -5.8,1.56 -6.35,3.7 l -7.37,29.8 c -0.12,0.47 -0.18,1.13 -0.18,1.73 0,1.25 1.14,1.96 4.67,1.96 h 1.02 l -0.24,0.96 h -19.65 l 0.24,-0.96 h 1.15 c 4.55,0 5.8,-1.67 6.3,-3.7 l 7.36,-29.8 c 0.13,-0.46 0.25,-1 0.25,-1.42 0,-1.32 -1.02,-2.28 -4.62,-2.28 h -1.07 l 0.24,-0.96 h 19.65 m 25.27,40.11 -2.6,8.04 h -24.1 l 0.18,-0.67 h 0.72 c 3.18,0 4.2,-1.2 4.53,-2.63 l 5,-20.2 c 0.17,-0.68 0.3,-1.53 0.3,-1.9 0,-0.8 -0.6,-1.58 -3.22,-1.58 h -0.76 l 0.17,-0.67 h 13.85 l -0.17,0.66 h -0.76 c -3.2,0 -4.08,1.1 -4.46,2.67 l -5.17,20.38 c -0.17,0.64 -0.2,1.23 -0.2,1.32 0,0.93 1.18,1.02 1.68,1.02 h 5.17 c 4.32,0 6.48,-0.94 8.43,-4.88 0.3,-0.46 0.5,-0.97 0.72,-1.56 h 0.68"
     id="path618" />
  <path
     d="m 4659.98,1611.93 h 16 v 16 h -16 z m 0,-328.08 h 16 v 16 h -16 z"
     stroke="#000000"
     stroke-opacity="0"
     stroke-width="3"
     fill-opacity="0"
     id="path620" />
  <path
     d="m 2720,920.45 c 0,-3.3 2.7,-6 6,-6 h 2298.47 c 3.3,0 6,2.7 6,6 v 848 c 0,3.32 -2.7,6 -6,6 H 2726 c -3.3,0 -6,-2.68 -6,-6 z"
     stroke="#000000"
     stroke-width="3"
     fill-opacity="0"
     id="path622" />
  <path
     d="m 4774.7,1513.58 v 100.35 c 0,3.32 -2.7,6 -6,6 h -91.22"
     stroke="#000000"
     stroke-width="3"
     fill="none"
     id="path624" />
  <path
     d="m 4776.2,1513.62 h -3 v -1.54 h 3 z m -98.68,107.81 h -1.54 v -3 h 1.54 z"
     id="path626" />
  <path
     d="m 4726.7,1452.08 c 0,-26.5 21.48,-48 48,-48 26.5,0 48,21.5 48,48 0,26.5 -21.5,48 -48,48 -26.52,0 -48,-21.5 -48,-48 z m 48,-24 v 43.2 h -2.4 4.8 l -2.4,4.8 -2.4,-4.8 h 2.4 m 0,28.8 v 12 m 0,-108 v -12"
     stroke="#000000"
     stroke-width="3"
     fill="#ffffff"
     id="path628" />
  <path
     d="m 4774.7,1390.58 v -92.73 c 0,-3.3 -2.7,-6 -6,-6 h -91.22"
     stroke="#000000"
     stroke-width="3"
     fill="none"
     id="path630" />
  <path
     d="m 4773.2,1392.08 v -1.53 h 3 v 1.53 z m -95.68,-98.73 h -1.54 v -3 h 1.54 z"
     id="path632" />
  <path
     d="m 3480.95,5801.45 h 16 v 16 h -16 z m 0.08,153 h 16 v 16 h -16 z"
     stroke="#000000"
     stroke-width="3"
     id="path634" />
  <path
     d="m 2740,5440.45 c 0,-3.3 2.7,-6 6,-6 h 2298.47 c 3.3,0 6,2.7 6,6 v 848 c 0,3.32 -2.7,6 -6,6 H 2746 c -3.3,0 -6,-2.68 -6,-6 z"
     stroke="#000000"
     stroke-width="3"
     fill-opacity="0"
     id="path636" />
  <path
     d="m 3259.82,5880.14 c 0,5.52 -4.48,10 -10,10 -5.53,0 -10,-4.48 -10,-10 0,-5.52 4.47,-10 10,-10 5.52,0 10,4.48 10,10 z"
     stroke="#000000"
     stroke-opacity="0"
     stroke-width="3"
     id="path638" />
  <path
     d="m 3128.08,5610.14 h 160 v 220 h -160 z"
     fill="none"
     id="path640" />
  <path
     d="m 3130.48,5720.14 h 84 m -2.4,34.98 v -69.96 m 74.88,34.98 c 0,31.46 -22.72,56.76 -50.88,56.76 -28.16,0 -50.88,-25.3 -50.88,-56.76 0,-31.46 22.72,-56.76 50.88,-56.76 28.16,0 50.88,25.3 50.88,56.76 z m -36.48,110 v -77.88 h -28.8 v -64.24 h 28.8 v -77.88 m -122.4,110 h 86.4 m 7.2,-42.9 v 85.8"
     stroke="#000000"
     stroke-width="3"
     fill="none"
     id="path642" />
  <path
     d="m 3128.08,5926.14 h 160 v 220 h -160 z"
     fill="none"
     id="path644" />
  <path
     d="m 3130.48,6036.14 h 84 m -2.4,34.98 v -69.96 m 74.88,34.98 c 0,31.46 -22.72,56.76 -50.88,56.76 -28.16,0 -50.88,-25.3 -50.88,-56.76 0,-31.46 22.72,-56.76 50.88,-56.76 28.16,0 50.88,25.3 50.88,56.76 z m -36.48,110 v -77.88 h -28.8 v -64.24 h 28.8 v -77.88 m -122.4,110 h 86.4 m 7.2,-42.9 v 85.8 m 4.24,-326.16 h -0.12"
     stroke="#000000"
     stroke-width="3"
     fill="none"
     id="path646" />
  <path
     d="m 3241.68,5752.54 -14.16,4.95 -0.2,-9.28 z"
     stroke="#000000"
     stroke-width="3"
     id="path648" />
  <path
     d="m 3225.84,5752.88 -1.54,0.04 m 1.62,315.58 -0.28,-0.02"
     stroke="#000000"
     stroke-width="3"
     fill="none"
     id="path650" />
  <path
     d="m 3241.68,6068.97 -14.4,4.2 0.28,-9.27 z"
     stroke="#000000"
     stroke-width="3"
     id="path652" />
  <path
     d="m 3225.68,6068.48 -1.54,-0.04"
     stroke="#000000"
     stroke-width="3"
     fill="none"
     id="path654" />
  <path
     d="m 3079.34,5700.67 c 0,-2.76 2.24,-5 5,-5 h 43.26 c 2.76,0 5,2.24 5,5 v 37.48 c 0,2.76 -2.24,5 -5,5 h -43.26 c -2.76,0 -5,-2.24 -5,-5 z"
     fill="#ffffff"
     fill-opacity="0"
     id="path656" />
  <path
     d="m 3107.7,5696.62 -2.24,11.16 -1,-0.16 c 0,-5.7 -1.23,-9.1 -6.65,-9.1 -3.84,0 -6.24,2.06 -6.24,5.58 0,2.73 0.45,3.63 5.53,8.7 5.07,5.14 6.3,7.54 6.3,11.17 0,6.36 -4.86,10.88 -11.28,10.88 -1.73,0 -3.24,-0.4 -5.8,-1.28 -1.5,-0.56 -2,-0.67 -2.63,-0.67 -1.12,0 -2.02,0.5 -2.4,1.78 h -1 l 1.9,-12.5 1.1,0.1 c -0.1,0.52 -0.1,0.9 -0.1,1.3 0,5.47 3.34,9.32 8.03,9.32 4.3,0 7.3,-2.9 7.3,-7.15 0,-2.4 -0.77,-4.07 -3.34,-6.86 l -2.2,-2.36 c -0.77,-0.83 -1.44,-1.6 -2.16,-2.34 -3.35,-3.57 -4.2,-5.36 -4.2,-8.37 0,-5.86 4.6,-9.15 9.94,-9.15 1.73,0 3.58,0.28 4.75,0.78 1.17,0.44 1.84,0.6 2.57,0.6 1.22,0 1.73,-0.27 2.5,-1.44 h 1.3 m 15.12,45.64 h -10.9 v -0.6 c 2.92,-0.15 3.75,-0.98 3.75,-3.15 v -17.72 c 0,-1.34 -0.36,-1.93 -1.2,-1.93 -0.38,0 -1.05,0.2 -1.76,0.47 l -1.08,0.4 v -0.55 l 7.06,-3.6 0.36,0.12 v 23.55 c 0,1.7 0.8,2.4 3.75,2.4 v 0.6"
     id="path658" />
  <path
     d="m 3260.03,6209.1 c 0,5.52 -4.48,10 -10,10 -5.53,0 -10,-4.48 -10,-10 0,-5.53 4.47,-10 10,-10 5.52,0 10,4.47 10,10 z"
     stroke="#000000"
     stroke-opacity="0"
     stroke-width="3"
     id="path660" />
  <path
     d="m 3250.48,6147.64 v 24.75 c 0,0.12 -0.1,0.22 -0.23,0.22 -0.12,0 -0.22,0.1 -0.22,0.22 v 24.76"
     stroke="#000000"
     stroke-width="3"
     fill="none"
     id="path662" />
  <path
     d="m 3251.98,6147.68 h -3 v -1.54 h 3 z m -0.45,51.62 -1.5,-0.2 -1.5,0.2 v -1.74 h 3 z"
     id="path664" />
  <path
     d="m 3236.7,5751.36 v -63.9 h 29.86 v 63.9 z"
     fill="none"
     id="path666" />
  <path
     d="m 3251.63,5751.36 v -19.17 m -14.93,0 h 29.86 l -14.93,-19.18 -14.93,19.17 z m 0,-19.18 h 29.86 m -14.93,0 v -25.55 z"
     stroke="#000000"
     stroke-width="3"
     fill="#ffffff"
     id="path668" />
  <path
     d="m 3235.7,6067.03 v -63.9 h 29.86 v 63.9 z"
     fill="none"
     id="path670" />
  <path
     d="m 3250.63,6067.03 v -19.17 m -14.93,0 h 29.86 l -14.93,-19.17 -14.93,19.16 z m 0,-19.17 h 29.86 m -14.93,0 v -25.56 z"
     stroke="#000000"
     stroke-width="3"
     fill="#ffffff"
     id="path672" />
  <path
     d="m 3077.34,6012.6 c 0,-2.77 2.24,-5 5,-5 h 40.6 c 2.75,0 5,2.23 5,5 v 35.1 c 0,2.75 -2.25,5 -5,5 h -40.6 c -2.76,0 -5,-2.25 -5,-5 z"
     fill="#ffffff"
     fill-opacity="0"
     id="path674" />
  <path
     d="m 3104.27,6008.5 -2.12,10.6 -0.96,-0.16 c 0,-5.4 -1.17,-8.65 -6.3,-8.65 -3.67,0 -5.95,1.96 -5.95,5.3 0,2.6 0.42,3.44 5.25,8.27 4.82,4.87 6,7.15 6,10.6 0,6.04 -4.63,10.33 -10.72,10.33 -1.64,0 -3.08,-0.37 -5.5,-1.22 -1.45,-0.53 -1.92,-0.63 -2.5,-0.63 -1.07,0 -1.9,0.48 -2.3,1.7 h -0.94 l 1.8,-11.88 1.06,0.1 c -0.1,0.48 -0.1,0.86 -0.1,1.23 0,5.2 3.18,8.85 7.63,8.85 4.08,0 6.94,-2.76 6.94,-6.8 0,-2.27 -0.74,-3.86 -3.18,-6.5 l -2.07,-2.23 c -0.75,-0.8 -1.38,-1.54 -2.07,-2.23 -3.18,-3.4 -3.98,-5.1 -3.98,-7.96 0,-5.57 4.35,-8.7 9.44,-8.7 1.64,0 3.4,0.27 4.5,0.75 1.12,0.4 1.75,0.57 2.44,0.57 1.17,0 1.65,-0.26 2.4,-1.38 h 1.2 m 17.36,38.24 -2.02,5.13 h -14.65 v -0.45 l 6.67,-7.08 c 3.52,-3.7 4.87,-6.56 4.87,-9.75 0,-3.4 -2.02,-5.28 -5.2,-5.28 -2.7,0 -4.02,1.2 -5.52,4.87 l -0.8,-0.2 c 0.8,-4.37 3.2,-7.44 7.8,-7.44 4.25,0 6.95,2.88 6.95,6.6 0,2.95 -1.47,5.76 -4.8,9.3 l -6.2,6.6 h 8.78 c 1.58,0 2.37,-0.43 3.6,-2.53"
     id="path676" />
  <path
     d="m 3147.1,6036.8 c 0,5.53 -4.46,10 -10,10 -5.5,0 -10,-4.47 -10,-10 0,-5.5 4.5,-10 10,-10 5.54,0 10,4.5 10,10 z m -0.03,-316.66 c 0,5.52 -4.47,10 -10,10 -5.52,0 -10,-4.48 -10,-10 0,-5.52 4.48,-10 10,-10 5.53,0 10,4.48 10,10 z"
     stroke="#000000"
     stroke-width="3"
     fill="#ffffff"
     id="path678" />
  <path
     d="m 3250.48,5831.64 v 93"
     stroke="#000000"
     stroke-width="3"
     fill="none"
     id="path680" />
  <path
     d="m 3251.98,5831.68 h -3 v -1.54 h 3 z m -3,94.46 v -1.54 h 3 v 1.54 z"
     id="path682" />
  <path
     d="m 3238.53,6209.1 h -97.66 c -0.04,0 -0.07,-0.04 -0.07,-0.08 0,-0.04 -0.04,-0.07 -0.08,-0.07 h -97.65"
     stroke="#000000"
     stroke-width="3"
     fill="none"
     id="path684" />
  <path
     d="m 3240.03,6209.1 0.24,1.5 h -1.78 v -3 h 1.72 z"
     id="path686" />
  <path
     d="m 3043.1,6208.95 h -1.53 m 219.96,0.15 h 102.25 c 3.3,0 6,-2.7 6,-6 v -234.65 c 0,-3.3 2.68,-6 6,-6 h 102.25"
     stroke="#000000"
     stroke-width="3"
     fill="none"
     id="path688" />
  <path
     d="m 3261.57,6210.6 h -1.78 l 0.23,-1.5 -0.2,-1.5 h 1.74 z m 217.96,-246.65 H 3478 v -3 h 1.53 z"
     id="path690" />
  <path
     d="M 3261.32,5880.14 H 3374 c 3.3,0 6,-2.7 6,-6 v -58.7 c 0,-3.3 2.7,-6 6,-6 h 91.95"
     stroke="#000000"
     stroke-width="3"
     fill="none"
     id="path692" />
  <path
     d="m 3261.35,5881.64 h -1.78 l 0.25,-1.5 -0.2,-1.5 h 1.73 z m 218.1,-70.69 h -1.54 v -3 h 1.55 z"
     id="path694" />
  <path
     d="m 3250.48,5608.64 v -37.44 c 0,-3.32 -2.7,-6 -6,-6 h -201.4"
     stroke="#000000"
     stroke-width="3"
     fill="none"
     id="path696" />
  <path
     d="m 3248.98,5610.14 v -1.54 h 3 v 1.54 z"
     id="path698" />
  <path
     d="m 3043.13,5565.2 h -1.54"
     stroke="#000000"
     stroke-width="3"
     fill="none"
     id="path700" />
  <path
     d="m 2324.23,7289.6 c 0,-2.77 2.24,-5 5,-5 h 57.87 c 2.77,0 5,2.23 5,5 v 47.83 c 0,2.76 -2.23,5 -5,5 h -57.87 c -2.76,0 -5,-2.24 -5,-5 z"
     fill="#ffffff"
     fill-opacity="0"
     id="path702"
     inkscape:export-filename="/Users/aaron/gottaTry.png"
     inkscape:export-xdpi="96.976402"
     inkscape:export-ydpi="96.976402" />
  <path
     d="m 2368.07,7290.24 -0.23,0.92 c -3.75,0.23 -6.1,2.48 -7.6,4.44 l -25.46,33.23 h -1.38 v -32.94 c 0,-3.36 -2.2,-4.74 -5.7,-4.74 l 0.22,-0.92 h 16.96 l -0.23,0.92 h -1.1 c -3.75,0 -4.03,2.13 -4.03,4.04 v 22.56 l 0.23,0.05 16.15,-21.1 c 1.1,-1.4 2.2,-3.06 2.2,-4.27 0,-0.87 -0.8,-1.27 -3,-1.27 h -1.16 l 0.23,-0.92 h 13.9 m 16.57,38.61 -2.5,7.75 h -23.2 l 0.16,-0.65 h 0.7 c 3.05,0 4.03,-1.15 4.36,-2.53 l 4.8,-19.46 c 0.18,-0.65 0.3,-1.47 0.3,-1.83 0,-0.78 -0.57,-1.5 -3.1,-1.5 h -0.74 l 0.17,-0.67 h 13.33 l -0.17,0.66 h -0.73 c -3.06,0 -3.92,1.06 -4.28,2.57 l -4.98,19.6 c -0.16,0.62 -0.2,1.2 -0.2,1.27 0,0.9 1.14,0.98 1.63,0.98 h 4.97 c 4.16,0 6.24,-0.9 8.12,-4.7 0.28,-0.44 0.48,-0.93 0.68,-1.5 h 0.66"
     id="path704"
     inkscape:export-filename="/Users/aaron/gottaTry.png"
     inkscape:export-xdpi="96.976402"
     inkscape:export-ydpi="96.976402" />
  <path
     d="m 2304.23,7205.85 c 0,-2.76 2.24,-5 5,-5 h 37.84 c 2.76,0 5,2.24 5,5 v 33.42 c 0,2.76 -2.24,5 -5,5 h -37.84 c -2.76,0 -5,-2.24 -5,-5 z"
     fill="#ffffff"
     fill-opacity="0"
     id="path706"
     inkscape:export-filename="/Users/aaron/gottaTry.png"
     inkscape:export-xdpi="96.976402"
     inkscape:export-ydpi="96.976402" />
  <path
     d="m 2348.62,7224.86 h -18.22 v 18.22 h -4.6 v -18.22 h -18.22 v -4.6 h 18.2 v -18.22 h 4.62 v 18.22 h 18.22 v 4.6"
     id="path708"
     inkscape:export-filename="/Users/aaron/gottaTry.png"
     inkscape:export-xdpi="96.976402"
     inkscape:export-ydpi="96.976402" />
  <path
     d="m 2304.23,7407.2 c 0,-2.76 2.24,-5 5,-5 h 37.84 c 2.76,0 5,2.24 5,5 v 12.27 c 0,2.76 -2.24,5 -5,5 h -37.84 c -2.76,0 -5,-2.24 -5,-5 z"
     fill="#ffffff"
     fill-opacity="0"
     id="path710"
     inkscape:export-filename="/Users/aaron/gottaTry.png"
     inkscape:export-xdpi="96.976402"
     inkscape:export-ydpi="96.976402" />
  <path
     d="m 2347.57,7408 h -38.88 v -4.6 h 38.87 v 4.6"
     id="path712"
     inkscape:export-filename="/Users/aaron/gottaTry.png"
     inkscape:export-xdpi="96.976402"
     inkscape:export-ydpi="96.976402" />
  <path
     d="m 2201.2,7096.92 c 0,-2.76 2.25,-5 5,-5 h 54.8 c 2.76,0 5,2.24 5,5 v 50.05 c 0,2.76 -2.24,5 -5,5 h -54.8 c -2.75,0 -5,-2.24 -5,-5 z"
     fill="#ffffff"
     fill-opacity="0"
     id="path714"
     inkscape:export-filename="/Users/aaron/gottaTry.png"
     inkscape:export-xdpi="96.976402"
     inkscape:export-ydpi="96.976402" />
  <path
     d="m 2232.96,7097.78 -0.24,0.96 h -1.14 c -4.55,0 -5.8,1.55 -6.35,3.7 l -7.37,29.8 c -0.12,0.46 -0.18,1.12 -0.18,1.72 0,1.26 1.14,1.98 4.68,1.98 h 1 l -0.23,0.96 h -19.65 l 0.24,-0.96 h 1.14 c 4.55,0 5.8,-1.68 6.3,-3.7 l 7.36,-29.8 c 0.12,-0.47 0.24,-1 0.24,-1.43 0,-1.3 -1.02,-2.26 -4.6,-2.26 h -1.1 l 0.25,-0.96 h 19.66 m 25.29,40.08 -2.58,8.05 h -24.1 l 0.17,-0.68 h 0.72 c 3.17,0 4.2,-1.18 4.53,-2.62 l 5,-20.2 c 0.17,-0.7 0.3,-1.53 0.3,-1.9 0,-0.82 -0.6,-1.58 -3.23,-1.58 h -0.76 l 0.18,-0.68 h 13.85 l -0.17,0.68 h -0.76 c -3.18,0 -4.07,1.1 -4.45,2.67 l -5.17,20.38 c -0.17,0.64 -0.2,1.23 -0.2,1.3 0,0.95 1.18,1.03 1.7,1.03 h 5.15 c 4.32,0 6.48,-0.92 8.43,-4.86 0.3,-0.47 0.5,-0.97 0.72,-1.57 h 0.68"
     id="path716"
     inkscape:export-filename="/Users/aaron/gottaTry.png"
     inkscape:export-xdpi="96.976402"
     inkscape:export-ydpi="96.976402" />
  <path
     d="m 2194.56,7169.85 h 32 m -31.93,0 h -2.57"
     stroke="#000000"
     stroke-width="5"
     fill="none"
     id="path718"
     inkscape:export-filename="/Users/aaron/gottaTry.png"
     inkscape:export-xdpi="96.976402"
     inkscape:export-ydpi="96.976402" />
  <path
     d="m 2243.32,7169.85 -14.27,4.64 v -9.28 z"
     stroke="#000000"
     stroke-width="5"
     id="path720"
     inkscape:export-filename="/Users/aaron/gottaTry.png"
     inkscape:export-xdpi="96.976402"
     inkscape:export-ydpi="96.976402" />
  <path
     d="m 2149.5,7489.93 h 16 v 16 h -16 z m 0,-328.08 h 16 v 16 h -16 z"
     stroke="#000000"
     stroke-opacity="0"
     stroke-width="3"
     fill-opacity="0"
     id="path722"
     inkscape:export-filename="/Users/aaron/gottaTry.png"
     inkscape:export-xdpi="96.976402"
     inkscape:export-ydpi="96.976402" />
  <path
     d="m 209.53,6800.45 c 0,-3.3 2.7,-6 6,-6 H 2514 c 3.3,0 6,2.7 6,6 v 848 c 0,3.32 -2.7,6 -6,6 H 215.53 c -3.3,0 -6,-2.68 -6,-6 z"
     stroke="#000000"
     stroke-width="3"
     fill-opacity="0"
     id="path724"
     style="stroke:#000000;stroke-opacity:0"
     inkscape:export-filename="/Users/aaron/gottaTry.png"
     inkscape:export-xdpi="96.976402"
     inkscape:export-ydpi="96.976402" />
  <path
     d="m 2312.23,7312.45 c 0,26.5 -21.5,48 -48,48 -26.5,0 -48,-21.5 -48,-48 0,-26.5 21.5,-48 48,-48 26.5,0 48,21.5 48,48 z m -48,-24 h -6 m 6,0 h 6 m -6,0 v -6 m 0,6 v 6 m 0,42 h 6 m -6,0 h -6 m 6,-72 v -12 m 0,108 v 12"
     stroke="#000000"
     stroke-width="3"
     fill="#ffffff"
     id="path726"
     inkscape:export-filename="/Users/aaron/gottaTry.png"
     inkscape:export-xdpi="96.976402"
     inkscape:export-ydpi="96.976402" />
  <path
     d="m 2264.23,7373.95 v 117.98 c 0,3.32 -2.7,6 -6,6 H 2167"
     stroke="#000000"
     stroke-width="3"
     fill="none"
     id="path728"
     inkscape:export-filename="/Users/aaron/gottaTry.png"
     inkscape:export-xdpi="96.976402"
     inkscape:export-ydpi="96.976402" />
  <path
     d="m 2265.73,7374 h -3 v -1.55 h 3 z m -98.68,125.43 h -1.54 v -3 h 1.55 z"
     id="path730"
     inkscape:export-filename="/Users/aaron/gottaTry.png"
     inkscape:export-xdpi="96.976402"
     inkscape:export-ydpi="96.976402" />
  <path
     d="m 2264.23,7250.95 v -75.1 c 0,-3.3 -2.7,-6 -6,-6 H 2167"
     stroke="#000000"
     stroke-width="3"
     fill="none"
     id="path732"
     inkscape:export-filename="/Users/aaron/gottaTry.png"
     inkscape:export-xdpi="96.976402"
     inkscape:export-ydpi="96.976402" />
  <path
     d="m 2262.73,7252.45 v -1.53 h 3 v 1.53 z m -95.68,-81.1 h -1.54 v -3 h 1.55 z"
     id="path734"
     inkscape:export-filename="/Users/aaron/gottaTry.png"
     inkscape:export-xdpi="96.976402"
     inkscape:export-ydpi="96.976402" />
</svg>
